<?xml version="1.0" encoding="UTF-8" standalone="no"?>
<!-- Created with Inkscape (http://www.inkscape.org/) -->

<svg
   xmlns:dc="http://purl.org/dc/elements/1.1/"
   xmlns:cc="http://creativecommons.org/ns#"
   xmlns:rdf="http://www.w3.org/1999/02/22-rdf-syntax-ns#"
   xmlns:svg="http://www.w3.org/2000/svg"
   xmlns="http://www.w3.org/2000/svg"
   xmlns:sodipodi="http://sodipodi.sourceforge.net/DTD/sodipodi-0.dtd"
   xmlns:inkscape="http://www.inkscape.org/namespaces/inkscape"
   width="10mm"
   height="10mm"
   viewBox="0 0 10 10"
   version="1.1"
   id="svg8"
   inkscape:version="0.92.1 r15371"
   sodipodi:docname="K.svg">
  <defs
     id="defs2" />
  <sodipodi:namedview
     id="base"
     pagecolor="#ffffff"
     bordercolor="#666666"
     borderopacity="1.0"
     inkscape:pageopacity="0.0"
     inkscape:pageshadow="2"
     inkscape:zoom="3.959798"
     inkscape:cx="32.515811"
     inkscape:cy="-4.2258538"
     inkscape:document-units="mm"
     inkscape:current-layer="layer1"
     showgrid="false"
     inkscape:snap-object-midpoints="false"
     inkscape:object-nodes="true"
     inkscape:window-width="1285"
     inkscape:window-height="744"
     inkscape:window-x="81"
     inkscape:window-y="24"
     inkscape:window-maximized="1"
     inkscape:object-paths="true" />
  <metadata
     id="metadata5">
    <rdf:RDF>
      <cc:Work
         rdf:about="">
        <dc:format>image/svg+xml</dc:format>
        <dc:type
           rdf:resource="http://purl.org/dc/dcmitype/StillImage" />
        <dc:title></dc:title>
      </cc:Work>
    </rdf:RDF>
  </metadata>
  <g
     inkscape:label="Livello 1"
     inkscape:groupmode="layer"
     id="layer1"
     transform="translate(-6.5011687,-129.95088)">
    <g
       aria-label="♔"
       style="font-style:normal;font-weight:normal;font-size:10.58333302px;line-height:125%;font-family:sans-serif;letter-spacing:0px;word-spacing:0px;fill:#000000;fill-opacity:1;stroke:none;stroke-width:0.20454195px;stroke-linecap:butt;stroke-linejoin:miter;stroke-opacity:1"
       id="text4502"
       transform="matrix(1.2935406,0,0,1.2935406,-1.9691698,-41.081262)">
      <path
         d="m 10.051804,134.95377 q 0.0052,-0.0155 0.0155,-0.031 -0.1808673,-0.22221 -0.4444171,-0.36691 -0.3824056,-0.21187 -0.7854818,-0.21187 -0.4030761,0 -0.7854817,0.21187 -0.377238,0.20671 -0.594279,0.59428 -0.217041,0.38241 -0.217041,0.79582 0,0.41858 0.2118734,0.79582 0.2118734,0.37723 0.5942789,0.58394 0.1136882,0.0724 0.232544,0.11369 h 1.7725013 z m 0.728638,2.48564 h 1.767334 q 0.124023,-0.0413 0.237711,-0.11369 0.382406,-0.20671 0.589112,-0.58394 0.211873,-0.37724 0.211873,-0.79582 0,-0.41341 -0.217041,-0.79582 -0.211873,-0.38757 -0.594279,-0.59428 -0.377238,-0.21187 -0.785482,-0.21187 -0.397908,0 -0.780314,0.21187 -0.268717,0.1447 -0.444417,0.36691 0.01033,0.0155 0.0155,0.031 z m -2.3202718,0.53226 v 1.5658 h 3.9119058 v -1.5658 z m -0.4237467,1.97921 v -1.97921 q -0.2170411,-0.0672 -0.4134115,-0.18086 -0.3565674,-0.27906 -0.6356201,-0.78548 -0.2790527,-0.50643 -0.2790527,-1.05937 0,-0.55811 0.2842204,-1.06454 0.2842203,-0.51159 0.795817,-0.78548 0.5115966,-0.27388 1.0490315,-0.27388 0.4134115,0 0.8061523,0.16019 v -0.0103 q 0,-0.18604 0.093018,-0.34623 0.093018,-0.16537 0.2583822,-0.25839 0.06718,-0.0362 0.1498614,-0.0568 v -0.27905 H 9.5867164 v -0.36174 h 0.5581056 v -0.44958 h 0.542602 v 0.44958 h 0.558106 v 0.36174 h -0.558106 v 0.27905 q 0.08268,0.0207 0.149862,0.0568 0.160197,0.093 0.253215,0.25839 0.09819,0.16019 0.09819,0.34623 v 0.0103 q 0.392741,-0.16019 0.800984,-0.16019 0.537435,0 1.049032,0.27388 0.511597,0.27389 0.795817,0.78548 0.28422,0.50643 0.28422,1.06454 0,0.55294 -0.279052,1.05937 -0.279053,0.50642 -0.630453,0.78548 -0.201538,0.11369 -0.413411,0.18086 v 1.97921 z m 1.896525,-5.93762 q 0,0.12919 0.062012,0.24288 0.067181,0.10852 0.1808675,0.1757 0.118855,0.062 0.237711,0.062 0.124024,0 0.237712,-0.062 0.118856,-0.0672 0.180867,-0.1757 0.06201,-0.11369 0.06201,-0.24288 0,-0.12402 -0.06201,-0.23771 -0.06201,-0.11886 -0.180867,-0.1757 -0.113688,-0.062 -0.237712,-0.062 -0.118856,0 -0.237711,0.062 -0.113688,0.0568 -0.1808675,0.1757 -0.062012,0.11369 -0.062012,0.23771 z"
         style="stroke-width:0.20454195px"
         id="path4504"
         inkscape:connector-curvature="0" />
    </g>
    <g
       aria-label="♔"
       style="font-style:normal;font-weight:normal;font-size:10.58333302px;line-height:125%;font-family:sans-serif;letter-spacing:0px;word-spacing:0px;fill:#000000;fill-opacity:1;stroke:none;stroke-width:0.20454195px;stroke-linecap:butt;stroke-linejoin:miter;stroke-opacity:1"
       id="text4502-3"
       transform="matrix(1.2935406,0,0,1.2935406,8.2651929,-32.339492)">
      <path
         d="m 2.1554049,128.22675 c 0.0035,-0.0103 0.0086,-0.0207 0.0155,-0.031 -0.1205782,-0.14814 -0.2687172,-0.27044 -0.4444171,-0.36691 -0.2549371,-0.14125 -0.5167643,-0.21187 -0.78548178,-0.21187 -0.2687174,0 -0.5305446,0.0706 -0.7854817,0.21187 -0.251492,0.13781 -0.449585,0.3359 -0.594279,0.59428 -0.144694,0.25494 -0.217041,0.52021 -0.217041,0.79582 0,0.27905 0.070624,0.54433 0.2118734,0.79582 0.1412489,0.25149 0.3393419,0.44613 0.5942789,0.58394 0.075792,0.0483 0.1533068,0.0862 0.232544,0.11369 H 2.1554019 Z m 0.728638,2.48564 h 1.767334 c 0.08268,-0.0275 0.161919,-0.0654 0.237711,-0.11369 0.254937,-0.13781 0.451308,-0.33245 0.589112,-0.58394 0.141249,-0.25149 0.211873,-0.51677 0.211873,-0.79582 0,-0.27561 -0.07235,-0.54088 -0.217041,-0.79582 -0.141249,-0.25838 -0.339342,-0.45647 -0.594279,-0.59428 -0.251492,-0.14125 -0.513319,-0.21187 -0.785482,-0.21187 -0.265272,0 -0.525377,0.0706 -0.780314,0.21187 -0.179145,0.0965 -0.327284,0.21877 -0.444417,0.36691 0.0069,0.0103 0.01205,0.0207 0.0155,0.031 z m -2.32027178,0.53226 v 1.5658 H 4.4756769 v -1.5658 z m 1.47277828,-3.95841 c 0,0.0861 0.020671,0.16709 0.062012,0.24288 0.044787,0.0724 0.1050765,0.13091 0.1808675,0.1757 0.07924,0.0413 0.158474,0.062 0.237711,0.062 0.08268,0 0.16192,-0.0207 0.237712,-0.062 0.07924,-0.0448 0.139526,-0.10337 0.180867,-0.1757 0.04134,-0.0758 0.06201,-0.15675 0.06201,-0.24288 0,-0.0827 -0.02067,-0.16192 -0.06201,-0.23771 -0.04134,-0.0792 -0.101629,-0.13781 -0.180867,-0.1757 -0.07579,-0.0413 -0.155029,-0.062 -0.237712,-0.062 -0.07924,0 -0.158474,0.0207 -0.237711,0.062 -0.07579,0.0379 -0.136081,0.0964 -0.1808675,0.1757 -0.041341,0.0758 -0.062012,0.15503 -0.062012,0.23771 z"
         style="fill:#ffffff;fill-opacity:1;stroke-width:0.20454195px"
         id="path4504-6"
         inkscape:connector-curvature="0"
         sodipodi:nodetypes="cccsccscccccccccsccscccccccccsccsccsccsccs" />
    </g>
  </g>
</svg>
