<?xml version="1.0" encoding="UTF-8" standalone="no"?>
<!-- Created with Inkscape (http://www.inkscape.org/) -->

<svg
   xmlns:dc="http://purl.org/dc/elements/1.1/"
   xmlns:cc="http://creativecommons.org/ns#"
   xmlns:rdf="http://www.w3.org/1999/02/22-rdf-syntax-ns#"
   xmlns:svg="http://www.w3.org/2000/svg"
   xmlns="http://www.w3.org/2000/svg"
   xmlns:sodipodi="http://sodipodi.sourceforge.net/DTD/sodipodi-0.dtd"
   xmlns:inkscape="http://www.inkscape.org/namespaces/inkscape"
   width="9.5855618mm"
   height="10.000002mm"
   viewBox="0 0 9.5855618 10.000002"
   version="1.1"
   id="svg8"
   inkscape:version="0.92.1 r15371"
   sodipodi:docname="piece-k.svg">
  <defs
     id="defs2" />
  <sodipodi:namedview
     id="base"
     pagecolor="#ffffff"
     bordercolor="#666666"
     borderopacity="1.0"
     inkscape:pageopacity="0.0"
     inkscape:pageshadow="2"
     inkscape:zoom="11.2"
     inkscape:cx="24.006603"
     inkscape:cy="7.8260545"
     inkscape:document-units="mm"
     inkscape:current-layer="layer1"
     showgrid="false"
     inkscape:window-width="1285"
     inkscape:window-height="744"
     inkscape:window-x="81"
     inkscape:window-y="24"
     inkscape:window-maximized="1" />
  <metadata
     id="metadata5">
    <rdf:RDF>
      <cc:Work
         rdf:about="">
        <dc:format>image/svg+xml</dc:format>
        <dc:type
           rdf:resource="http://purl.org/dc/dcmitype/StillImage" />
        <dc:title></dc:title>
      </cc:Work>
    </rdf:RDF>
  </metadata>
  <g
     inkscape:label="Livello 1"
     inkscape:groupmode="layer"
     id="layer1"
     transform="translate(-2.9409395,-66.307762)">
    <g
       aria-label="♚"
       style="font-style:normal;font-weight:normal;font-size:13.68983936px;line-height:125%;font-family:sans-serif;letter-spacing:0px;word-spacing:0px;fill:#000000;fill-opacity:1;stroke:none;stroke-width:0.26458332px;stroke-linecap:butt;stroke-linejoin:miter;stroke-opacity:1"
       id="text4487">
      <path
         d="m 7.2658058,69.843859 q 0.00668,-0.02005 0.020054,-0.04011 Q 7.051902,69.516318 6.710993,69.329153 6.2163406,69.055088 5.6949502,69.055088 q -0.5213904,0 -1.0160428,0.274065 -0.4879679,0.267379 -0.7687165,0.768716 -0.2807487,0.494653 -0.2807487,1.029412 0,0.541444 0.2740642,1.029412 0.2740641,0.487968 0.7687165,0.755347 0.1470589,0.09358 0.3008022,0.147059 h 2.2927807 z m 0.9425133,3.21524 h 2.2860959 q 0.160428,-0.05348 0.307487,-0.147059 0.494652,-0.267379 0.762032,-0.755347 0.274064,-0.487968 0.274064,-1.029412 0,-0.534759 -0.280748,-1.029412 -0.274065,-0.501337 -0.768717,-0.768716 -0.487968,-0.274065 -1.0160428,-0.274065 -0.5147058,0 -1.0093582,0.274065 -0.3475936,0.187165 -0.5748663,0.474599 0.013369,0.02005 0.020053,0.04011 z m -3.0013368,0.688503 v 2.025401 h 5.0601607 v -2.025401 z m -0.5481283,2.56016 v -2.56016 Q 4.3781053,73.660703 4.1240946,73.513645 3.6628647,73.152682 3.3019021,72.497602 2.9409395,71.842522 2.9409395,71.127281 q 0,-0.721925 0.3676471,-1.377005 0.3676471,-0.661765 1.0294117,-1.016043 0.6617647,-0.354278 1.3569519,-0.354278 0.5347593,0 1.0427807,0.207219 v -0.01337 q 0,-0.240642 0.1203209,-0.447861 0.1203208,-0.213904 0.3342246,-0.334225 0.086898,-0.04679 0.1938502,-0.07353 v -0.36096 H 6.6642015 v -0.467915 h 0.7219251 v -0.581551 h 0.7018717 v 0.581551 h 0.7219251 v 0.467915 H 8.0879983 v 0.360962 q 0.1069519,0.02674 0.1938503,0.07353 0.2072192,0.120321 0.3275401,0.334225 0.1270053,0.207219 0.1270053,0.447861 v 0.01337 q 0.5080214,-0.207219 1.0360962,-0.207219 0.6951868,0 1.3569518,0.354278 0.661765,0.354278 1.029412,1.016043 0.367647,0.65508 0.367647,1.377005 0,0.715241 -0.360963,1.370321 -0.360962,0.65508 -0.815508,1.016043 -0.260695,0.147058 -0.534759,0.233957 v 2.56016 z m 2.4532085,-7.680481 q 0,0.167112 0.080214,0.314171 0.086898,0.140374 0.2339572,0.227273 0.1537433,0.08021 0.3074866,0.08021 0.1604278,0 0.3074866,-0.08021 0.1537434,-0.0869 0.2339573,-0.227273 0.080214,-0.147059 0.080214,-0.314171 0,-0.160428 -0.080214,-0.307487 -0.080214,-0.153743 -0.2339573,-0.227272 -0.1470588,-0.08021 -0.3074866,-0.08021 -0.1537433,0 -0.3074866,0.08021 -0.1470588,0.07353 -0.2339572,0.227272 -0.080214,0.147059 -0.080214,0.307487 z m 2.8074866,5.467914 v 1.336899 H 5.5545759 V 74.095195 Z M 6.9315812,72.71819 H 5.0599235 Q 4.9396026,72.671399 4.8259663,72.591185 4.4182122,72.370596 4.197624,71.969527 3.9770358,71.561773 3.9770358,71.113912 q 0,-0.441177 0.2272727,-0.848931 0.2272727,-0.414438 0.6216578,-0.635026 0.4010695,-0.227273 0.8288769,-0.227273 0.4144385,0 0.8221925,0.220588 0.2740642,0.153744 0.4679145,0.394385 -0.013369,0.02005 -0.013369,0.03342 z m 1.6109625,-2.667112 q 0,-0.01337 -0.013369,-0.03342 0.1938502,-0.240641 0.4679144,-0.394385 0.407754,-0.220588 0.815508,-0.220588 0.4344919,0 0.8288769,0.227273 0.40107,0.220588 0.628342,0.635026 0.227273,0.407754 0.227273,0.848931 0,0.447861 -0.220588,0.855615 -0.220588,0.401069 -0.628342,0.621658 -0.120321,0.08021 -0.240642,0.127005 H 8.5425437 Z"
         style="stroke-width:0.26458332px"
         id="path4507"
         inkscape:connector-curvature="0" />
    </g>
    <g
       transform="translate(11.921042,1.4578615)"
       aria-label="♚"
       style="font-style:normal;font-weight:normal;font-size:13.68983936px;line-height:125%;font-family:sans-serif;letter-spacing:0px;word-spacing:0px;fill:#000000;fill-opacity:1;stroke:none;stroke-width:0.26458332px;stroke-linecap:butt;stroke-linejoin:miter;stroke-opacity:1"
       id="text4487-7">
      <path
         inkscape:connector-curvature="0"
         d="m -4.6552362,68.385998 c 0.00445,-0.01337 0.011138,-0.02674 0.020054,-0.04011 -0.1559719,-0.191621 -0.3475941,-0.349819 -0.5748668,-0.474596 -0.3297683,-0.18271 -0.6684492,-0.274065 -1.0160428,-0.274065 -0.3475936,0 -0.6862745,0.09136 -1.0160428,0.274065 -0.3253119,0.178253 -0.5815508,0.434491 -0.7687165,0.768716 -0.1871658,0.329769 -0.2807487,0.672906 -0.2807487,1.029412 0,0.360963 0.091355,0.704099 0.2740642,1.029411 0.1827094,0.325312 0.4389482,0.577094 0.7687165,0.755347 0.098039,0.06239 0.1983067,0.111406 0.3008022,0.147059 h 2.2927807 z m 0.9425133,3.21524 h 2.2860959 c 0.106952,-0.03565 0.209448,-0.08467 0.307487,-0.147059 0.329768,-0.178253 0.583779,-0.430035 0.762032,-0.755347 0.182709,-0.325312 0.274064,-0.668449 0.274064,-1.029412 0,-0.356506 -0.09358,-0.699643 -0.280748,-1.029412 -0.18271,-0.334225 -0.438949,-0.590463 -0.768717,-0.768716 -0.325312,-0.18271 -0.663993,-0.274065 -1.0160428,-0.274065 -0.3431372,0 -0.6795899,0.09136 -1.0093582,0.274065 -0.2317291,0.124777 -0.4233512,0.282976 -0.5748663,0.474599 0.00891,0.01337 0.015597,0.02674 0.020053,0.04011 z m -3.0013368,0.688503 v 2.025401 h 5.0601607 v -2.025401 z m 1.9050802,-5.120321 c 0,0.111408 0.026738,0.216132 0.080214,0.314171 0.057932,0.09358 0.1359177,0.16934 0.2339572,0.227273 0.1024955,0.05347 0.2049911,0.08021 0.3074866,0.08021 0.1069519,0 0.2094474,-0.02674 0.3074866,-0.08021 0.1024956,-0.05793 0.1804814,-0.133691 0.2339573,-0.227273 0.053476,-0.09804 0.080214,-0.202763 0.080214,-0.314171 0,-0.106952 -0.026738,-0.209448 -0.080214,-0.307487 -0.053476,-0.102495 -0.1314618,-0.178253 -0.2339573,-0.227272 -0.098039,-0.05347 -0.2005347,-0.08021 -0.3074866,-0.08021 -0.1024955,0 -0.2049911,0.02674 -0.3074866,0.08021 -0.098039,0.04902 -0.1760249,0.124777 -0.2339572,0.227272 -0.053476,0.09804 -0.080214,0.200535 -0.080214,0.307487 z m 2.8074866,5.467914 v 1.336899 h -4.3649732 v -1.336899 z m -2.9879679,-1.377005 h -1.8716577 c -0.080214,-0.03119 -0.1581997,-0.07353 -0.2339572,-0.127005 -0.2718361,-0.147059 -0.4812835,-0.354279 -0.6283423,-0.621658 -0.1470588,-0.271836 -0.2205882,-0.557041 -0.2205882,-0.855615 0,-0.294118 0.075758,-0.577095 0.2272727,-0.848931 0.1515151,-0.276292 0.3587344,-0.487967 0.6216578,-0.635026 0.2673797,-0.151515 0.543672,-0.227273 0.8288769,-0.227273 0.2762923,0 0.5503565,0.07353 0.8221925,0.220588 0.1827095,0.102496 0.338681,0.233958 0.4679145,0.394385 -0.00891,0.01337 -0.013369,0.02451 -0.013369,0.03342 z m 1.6109625,-2.667112 c 0,-0.0089 -0.00446,-0.02005 -0.013369,-0.03342 0.1292335,-0.160427 0.2852049,-0.291889 0.4679144,-0.394385 0.271836,-0.147059 0.543672,-0.220589 0.815508,-0.220589 0.2896609,0 0.5659539,0.07576 0.8288769,0.227273 0.26738,0.147059 0.476827,0.358734 0.628342,0.635026 0.151515,0.271836 0.227273,0.554813 0.227273,0.848931 0,0.298574 -0.07353,0.583779 -0.220588,0.855615 -0.147059,0.267379 -0.356506,0.474599 -0.628342,0.621658 -0.08021,0.05347 -0.160428,0.09581 -0.240642,0.127005 h -1.8649733 z"
         style="fill:#fffffe;fill-opacity:1;stroke-width:0.26458332px"
         id="path4507-5"
         sodipodi:nodetypes="cccsccssccccccccsccscccccccccsccsccsccsccscccccccccsccsccscsccsccsccccs" />
    </g>
  </g>
</svg>
