<?xml version="1.0" encoding="UTF-8" standalone="no"?>
<!-- Created with Inkscape (http://www.inkscape.org/) -->

<svg
   xmlns:dc="http://purl.org/dc/elements/1.1/"
   xmlns:cc="http://creativecommons.org/ns#"
   xmlns:rdf="http://www.w3.org/1999/02/22-rdf-syntax-ns#"
   xmlns:svg="http://www.w3.org/2000/svg"
   xmlns="http://www.w3.org/2000/svg"
   xmlns:sodipodi="http://sodipodi.sourceforge.net/DTD/sodipodi-0.dtd"
   xmlns:inkscape="http://www.inkscape.org/namespaces/inkscape"
   width="8.2018757mm"
   height="10mm"
   viewBox="0 0 8.2018757 10"
   version="1.1"
   id="svg5756"
   inkscape:version="0.92.1 r15371"
   sodipodi:docname="piece-P.svg">
  <defs
     id="defs5750" />
  <sodipodi:namedview
     id="base"
     pagecolor="#ffffff"
     bordercolor="#666666"
     borderopacity="1.0"
     inkscape:pageopacity="0.0"
     inkscape:pageshadow="2"
     inkscape:zoom="5.6"
     inkscape:cx="48.418126"
     inkscape:cy="4.3994925"
     inkscape:document-units="mm"
     inkscape:current-layer="layer1"
     showgrid="false"
     inkscape:window-width="1285"
     inkscape:window-height="744"
     inkscape:window-x="81"
     inkscape:window-y="24"
     inkscape:window-maximized="1" />
  <metadata
     id="metadata5753">
    <rdf:RDF>
      <cc:Work
         rdf:about="">
        <dc:format>image/svg+xml</dc:format>
        <dc:type
           rdf:resource="http://purl.org/dc/dcmitype/StillImage" />
        <dc:title></dc:title>
      </cc:Work>
    </rdf:RDF>
  </metadata>
  <g
     inkscape:label="Livello 1"
     inkscape:groupmode="layer"
     id="layer1"
     transform="translate(-75.654305,-135.81453)">
    <g
       aria-label="♙"
       style="font-style:normal;font-weight:normal;font-size:10.58333302px;line-height:125%;font-family:sans-serif;letter-spacing:0px;word-spacing:0px;fill:#000000;fill-opacity:1;stroke:none;stroke-width:0.20454381px;stroke-linecap:butt;stroke-linejoin:miter;stroke-opacity:1"
       id="text6303"
       transform="matrix(1.2935289,0,0,1.2935289,-22.206722,-42.80077)">
      <path
         d="m 77.866051,140.57987 q -0.149862,0.26355 -0.149862,0.55294 0,0.28939 0.149862,0.54777 0.149861,0.25838 0.408243,0.40307 0.26355,0.1447 0.547771,0.1447 0.294555,0 0.552937,-0.1447 0.26355,-0.14469 0.408244,-0.40307 0.144694,-0.25838 0.144694,-0.54777 0,-0.28939 -0.149861,-0.55294 -0.144694,-0.26872 -0.408244,-0.40824 -0.26355,-0.13953 -0.54777,-0.13953 -0.279053,0 -0.542603,0.13953 -0.258382,0.13952 -0.413411,0.40824 z m 0.651123,-1.66398 q 0,0.0827 0.04134,0.15503 0.04134,0.0672 0.113688,0.10852 0.07235,0.0362 0.149862,0.0362 0.08268,0 0.155029,-0.0362 0.07235,-0.0413 0.113688,-0.10852 0.04134,-0.0724 0.04134,-0.15503 0,-0.0775 -0.04134,-0.14986 -0.04134,-0.0724 -0.118856,-0.11369 -0.07235,-0.0413 -0.149861,-0.0413 -0.07235,0 -0.149862,0.0413 -0.07235,0.0413 -0.113688,0.11369 -0.04134,0.0723 -0.04134,0.14986 z m 3.116088,6.89363 v 0.005 h -5.493204 v -0.005 l -0.428915,0.005 q -0.05684,-0.29455 -0.05684,-0.59428 0,-0.82682 0.423747,-1.5813 0.428914,-0.75964 1.18339,-1.16272 0.196371,-0.10852 0.403077,-0.18603 -0.15503,-0.14986 -0.26355,-0.34623 -0.217041,-0.38758 -0.217041,-0.81132 0,-0.42892 0.217041,-0.81649 0.222208,-0.39274 0.620117,-0.60978 0.139526,-0.0724 0.289388,-0.12403 -0.134359,-0.0982 -0.211873,-0.24804 -0.118856,-0.20154 -0.118856,-0.41858 0,-0.21704 0.113688,-0.41341 0.113688,-0.20154 0.315226,-0.31006 0.201538,-0.10852 0.413412,-0.10852 0.206705,0 0.408243,0.10852 0.201538,0.10852 0.315227,0.31006 0.118855,0.19637 0.118855,0.41341 0,0.21704 -0.10852,0.41858 -0.08785,0.14986 -0.217041,0.25321 0.139526,0.0465 0.294556,0.11886 0.387573,0.21704 0.609781,0.60978 0.222209,0.38757 0.222209,0.81649 0,0.42374 -0.211873,0.81132 -0.113688,0.19637 -0.268718,0.34623 0.196371,0.0827 0.392741,0.18603 0.759644,0.40308 1.188558,1.16272 0.428914,0.75448 0.428914,1.5813 0,0.29973 -0.06201,0.59428 z m -0.175699,-0.67696 q -0.02067,-0.64595 -0.3514,-1.2299 -0.356568,-0.62528 -0.992188,-0.96118 -0.630452,-0.34106 -1.29191,-0.34106 -0.666626,0 -1.302246,0.34106 -0.630453,0.3359 -0.976685,0.96118 -0.335897,0.58395 -0.356567,1.2299 z"
         style="stroke-width:0.20454381px"
         id="path6305"
         inkscape:connector-curvature="0" />
    </g>
    <g
       aria-label="♙"
       style="font-style:normal;font-weight:normal;font-size:10.58333302px;line-height:125%;font-family:sans-serif;letter-spacing:0px;word-spacing:0px;fill:#000000;fill-opacity:1;stroke:none;stroke-width:0.20454381px;stroke-linecap:butt;stroke-linejoin:miter;stroke-opacity:1"
       id="text6303-9"
       transform="matrix(1.2935289,0,0,1.2935289,-9.0189871,-42.43343)">
      <path
         d="m 67.67089,140.29589 c -0.09991,0.1757 -0.149862,0.36001 -0.149862,0.55294 0,0.19293 0.04995,0.37552 0.149862,0.54777 0.09991,0.17225 0.235988,0.30661 0.408243,0.40307 0.1757,0.0965 0.35829,0.1447 0.547771,0.1447 0.19637,0 0.380682,-0.0482 0.552937,-0.1447 0.1757,-0.0965 0.311781,-0.23082 0.408244,-0.40307 0.09646,-0.17225 0.144694,-0.35484 0.144694,-0.54777 0,-0.19293 -0.04995,-0.37724 -0.149861,-0.55294 -0.09646,-0.17915 -0.232544,-0.31523 -0.408244,-0.40824 -0.1757,-0.093 -0.35829,-0.13953 -0.54777,-0.13953 -0.186035,0 -0.366903,0.0465 -0.542603,0.13953 -0.172255,0.093 -0.310058,0.22909 -0.413411,0.40824 z m 0.651123,-1.66398 c 0,0.0551 0.01378,0.10681 0.04134,0.15503 0.02756,0.0448 0.06546,0.081 0.113688,0.10852 0.04823,0.0241 0.09819,0.0362 0.149862,0.0362 0.05512,0 0.106796,-0.0121 0.155029,-0.0362 0.04823,-0.0275 0.08613,-0.0637 0.113688,-0.10852 0.02756,-0.0483 0.04134,-0.0999 0.04134,-0.15503 0,-0.0517 -0.01378,-0.10162 -0.04134,-0.14986 -0.02756,-0.0483 -0.06718,-0.0862 -0.118856,-0.11369 -0.04823,-0.0275 -0.09819,-0.0413 -0.149861,-0.0413 -0.04823,0 -0.09819,0.0138 -0.149862,0.0413 -0.04823,0.0275 -0.08613,0.0654 -0.113688,0.11369 -0.02756,0.0482 -0.04134,0.0982 -0.04134,0.14986 z m 2.940389,6.21667 c -0.01378,-0.43063 -0.130913,-0.8406 -0.3514,-1.2299 -0.237712,-0.41685 -0.568441,-0.73725 -0.992188,-0.96118 -0.420301,-0.22737 -0.850938,-0.34106 -1.29191,-0.34106 -0.444417,0 -0.878499,0.11369 -1.302246,0.34106 -0.420302,0.22393 -0.745864,0.54433 -0.976685,0.96118 -0.223931,0.3893 -0.342787,0.79927 -0.356567,1.2299 z"
         style="fill:#fffff4;fill-opacity:1;stroke-width:0.20454381px"
         id="path6305-1"
         inkscape:connector-curvature="0"
         sodipodi:nodetypes="csccscssccsccsccsccsccsccssccscccs" />
    </g>
  </g>
</svg>
