<?xml version="1.0" encoding="UTF-8" standalone="no"?>
<!-- Created with Inkscape (http://www.inkscape.org/) -->

<svg
   xmlns:dc="http://purl.org/dc/elements/1.1/"
   xmlns:cc="http://creativecommons.org/ns#"
   xmlns:rdf="http://www.w3.org/1999/02/22-rdf-syntax-ns#"
   xmlns:svg="http://www.w3.org/2000/svg"
   xmlns="http://www.w3.org/2000/svg"
   xmlns:sodipodi="http://sodipodi.sourceforge.net/DTD/sodipodi-0.dtd"
   xmlns:inkscape="http://www.inkscape.org/namespaces/inkscape"
   width="8.2018738mm"
   height="10mm"
   viewBox="0 0 8.2018738 10"
   version="1.1"
   id="svg6351"
   inkscape:version="0.92.1 r15371"
   sodipodi:docname="piece-p.svg">
  <defs
     id="defs6345" />
  <sodipodi:namedview
     id="base"
     pagecolor="#ffffff"
     bordercolor="#666666"
     borderopacity="1.0"
     inkscape:pageopacity="0.0"
     inkscape:pageshadow="2"
     inkscape:zoom="2.8"
     inkscape:cx="45.577026"
     inkscape:cy="-5.4984532"
     inkscape:document-units="mm"
     inkscape:current-layer="layer1"
     showgrid="false"
     inkscape:window-width="1285"
     inkscape:window-height="744"
     inkscape:window-x="81"
     inkscape:window-y="24"
     inkscape:window-maximized="1" />
  <metadata
     id="metadata6348">
    <rdf:RDF>
      <cc:Work
         rdf:about="">
        <dc:format>image/svg+xml</dc:format>
        <dc:type
           rdf:resource="http://purl.org/dc/dcmitype/StillImage" />
        <dc:title></dc:title>
      </cc:Work>
    </rdf:RDF>
  </metadata>
  <g
     inkscape:label="Livello 1"
     inkscape:groupmode="layer"
     id="layer1"
     transform="translate(-57.511216,-80.166589)">
    <g
       aria-label="♟"
       transform="matrix(0.34224599,0,0,0.34224599,-16.881162,-26.466433)"
       style="font-style:normal;font-weight:normal;font-size:40px;line-height:125%;font-family:sans-serif;letter-spacing:0px;word-spacing:0px;fill:#000000;fill-opacity:1;stroke:none;stroke-width:0.7730794px;stroke-linecap:butt;stroke-linejoin:miter;stroke-opacity:1"
       id="flowRoot6896">
      <path
         d="m 217.58008,340.78711 q -0.21485,-1.11328 -0.21485,-2.24609 0,-3.125 1.60157,-5.97657 1.62109,-2.87109 4.47265,-4.39453 0.74219,-0.41015 1.52344,-0.70312 -0.58594,-0.56641 -0.99609,-1.3086 -0.82032,-1.46484 -0.82032,-3.0664 0,-1.6211 0.82032,-3.08594 0.83984,-1.48438 2.34375,-2.30469 0.52734,-0.27344 1.09375,-0.46875 -0.50782,-0.37109 -0.80078,-0.9375 -0.44922,-0.76172 -0.44922,-1.58203 0,-0.82031 0.42968,-1.5625 0.42969,-0.76172 1.19141,-1.17187 0.76172,-0.41016 1.5625,-0.41016 0.78125,0 1.54297,0.41016 0.76172,0.41015 1.19141,1.17187 0.44921,0.74219 0.44921,1.5625 0,0.82031 -0.41015,1.58203 -0.33203,0.56641 -0.82031,0.95703 0.52734,0.17578 1.11328,0.44922 1.46484,0.82031 2.30468,2.30469 0.83985,1.46484 0.83985,3.08594 0,1.60156 -0.80078,3.0664 -0.42969,0.74219 -1.01563,1.3086 0.74219,0.3125 1.48438,0.70312 2.87109,1.52344 4.49218,4.39453 1.6211,2.85157 1.6211,5.97657 0,1.13281 -0.23438,2.24609 z"
         id="path6904"
         inkscape:connector-curvature="0"
         style="stroke-width:0.59765178px" />
    </g>
  </g>
</svg>
