<?xml version="1.0" encoding="UTF-8" standalone="no"?>
<!-- Created with Inkscape (http://www.inkscape.org/) -->

<svg
   xmlns:dc="http://purl.org/dc/elements/1.1/"
   xmlns:cc="http://creativecommons.org/ns#"
   xmlns:rdf="http://www.w3.org/1999/02/22-rdf-syntax-ns#"
   xmlns:svg="http://www.w3.org/2000/svg"
   xmlns="http://www.w3.org/2000/svg"
   xmlns:sodipodi="http://sodipodi.sourceforge.net/DTD/sodipodi-0.dtd"
   xmlns:inkscape="http://www.inkscape.org/namespaces/inkscape"
   width="9.2513628mm"
   height="10mm"
   viewBox="0 0 9.2513628 10"
   version="1.1"
   id="svg5157"
   inkscape:version="0.92.1 r15371"
   sodipodi:docname="piece-q.svg">
  <defs
     id="defs5151" />
  <sodipodi:namedview
     id="base"
     pagecolor="#ffffff"
     bordercolor="#666666"
     borderopacity="1.0"
     inkscape:pageopacity="0.0"
     inkscape:pageshadow="2"
     inkscape:zoom="3.959798"
     inkscape:cx="-38.092114"
     inkscape:cy="-14.162692"
     inkscape:document-units="mm"
     inkscape:current-layer="layer1"
     showgrid="false"
     inkscape:window-width="1285"
     inkscape:window-height="744"
     inkscape:window-x="81"
     inkscape:window-y="24"
     inkscape:window-maximized="1" />
  <metadata
     id="metadata5154">
    <rdf:RDF>
      <cc:Work
         rdf:about="">
        <dc:format>image/svg+xml</dc:format>
        <dc:type
           rdf:resource="http://purl.org/dc/dcmitype/StillImage" />
        <dc:title></dc:title>
      </cc:Work>
    </rdf:RDF>
  </metadata>
  <g
     inkscape:label="Livello 1"
     inkscape:groupmode="layer"
     id="layer1"
     transform="translate(69.135686,-75.333328)">
    <g
       aria-label="♛"
       style="font-style:normal;font-weight:normal;font-size:10.58333302px;line-height:125%;font-family:sans-serif;letter-spacing:0px;word-spacing:0px;fill:#000000;fill-opacity:1;stroke:none;stroke-width:0.20454392px;stroke-linecap:butt;stroke-linejoin:miter;stroke-opacity:1"
       id="text5704"
       transform="matrix(1.2935282,0,0,1.2935282,20.293273,-25.047738)">
      <path
         d="m -68.582748,80.0675 q -0.490927,-0.01033 -0.552938,-0.501261 0,-0.144694 0.07235,-0.273886 0.07751,-0.134358 0.217041,-0.206705 0.139526,-0.07235 0.289388,-0.07235 0.144694,0 0.28422,0.07235 0.139526,0.07235 0.211873,0.206705 0.07235,0.129192 0.07235,0.273886 -0.02067,0.330729 -0.315226,0.444417 l 1.235067,2.614827 -0.268717,-3.627685 q -0.428915,0 -0.521932,-0.480591 0,-0.144694 0.07235,-0.273885 0.07751,-0.129191 0.211873,-0.201538 0.139526,-0.07235 0.299723,-0.07235 0.144694,0 0.279053,0.07235 0.139526,0.07235 0.211873,0.201538 0.07751,0.129191 0.07751,0.273885 -0.01033,0.232544 -0.248047,0.408244 l 0.976685,3.865397 0.222208,-4.237467 q -0.346232,-0.15503 -0.356567,-0.403077 0,-0.144694 0.07752,-0.279052 0.07751,-0.134359 0.211873,-0.201538 0.139526,-0.06718 0.279053,-0.06718 0.149861,0 0.28422,0.06718 0.139526,0.06718 0.217041,0.201538 0.07752,0.134358 0.07752,0.279052 -0.0155,0.279053 -0.361735,0.403077 l 0.19637,4.247802 0.956014,-3.824056 q -0.237712,-0.242879 -0.237712,-0.45992 0,-0.139526 0.07235,-0.268717 0.07752,-0.134359 0.217042,-0.206706 0.139526,-0.07235 0.279052,-0.07235 0.15503,0 0.294556,0.07235 0.139526,0.07235 0.211873,0.206706 0.07752,0.129191 0.07752,0.268717 -0.05684,0.43925 -0.501261,0.521932 l -0.475424,3.586344 1.328085,-2.661336 q -0.222209,-0.1757 -0.222209,-0.397908 0,-0.144694 0.07235,-0.273886 0.07751,-0.134358 0.211873,-0.201538 0.139527,-0.07235 0.284221,-0.07235 0.155029,0 0.289388,0.07235 0.139526,0.06718 0.211873,0.201538 0.07751,0.129192 0.07751,0.273886 -0.06718,0.485758 -0.578776,0.485758 l -0.826823,2.392619 v 2.888712 h -4.449341 v -2.888712 z m 4.898925,3.426147 v -0.403076 h -3.756876 v 0.403076 z m 0,1.539958 v -0.408244 h -3.756876 v 0.408244 z"
         style="stroke-width:0.20454392px"
         id="path5706"
         inkscape:connector-curvature="0" />
    </g>
    <g
       aria-label="♛"
       style="font-style:normal;font-weight:normal;font-size:10.58333302px;line-height:125%;font-family:sans-serif;letter-spacing:0px;word-spacing:0px;fill:#000000;fill-opacity:1;stroke:none;stroke-width:0.20454392px;stroke-linecap:butt;stroke-linejoin:miter;stroke-opacity:1"
       id="text5704-6"
       transform="matrix(1.2935282,0,0,1.2935282,20.293273,-25.047738)">
      <path
         d="m -63.683823,83.493647 v -0.403076 h -3.756876 v 0.403076 z m 0,1.539958 v -0.408244 h -3.756876 v 0.408244 z"
         style="fill:#fffff5;fill-opacity:1;stroke-width:0.20454392px"
         id="path5706-2"
         inkscape:connector-curvature="0"
         sodipodi:nodetypes="cccccccccc" />
    </g>
  </g>
</svg>
