<?xml version="1.0" encoding="UTF-8" standalone="no"?>
<!-- Created with Inkscape (http://www.inkscape.org/) -->

<svg
   xmlns:dc="http://purl.org/dc/elements/1.1/"
   xmlns:cc="http://creativecommons.org/ns#"
   xmlns:rdf="http://www.w3.org/1999/02/22-rdf-syntax-ns#"
   xmlns:svg="http://www.w3.org/2000/svg"
   xmlns="http://www.w3.org/2000/svg"
   xmlns:sodipodi="http://sodipodi.sourceforge.net/DTD/sodipodi-0.dtd"
   xmlns:inkscape="http://www.inkscape.org/namespaces/inkscape"
   width="7.7072186mm"
   height="10mm"
   viewBox="0 0 7.7072186 10"
   version="1.1"
   id="svg6932"
   inkscape:version="0.92.1 r15371"
   sodipodi:docname="piecce-R.svg">
  <defs
     id="defs6926" />
  <sodipodi:namedview
     id="base"
     pagecolor="#ffffff"
     bordercolor="#666666"
     borderopacity="1.0"
     inkscape:pageopacity="0.0"
     inkscape:pageshadow="2"
     inkscape:zoom="5.6"
     inkscape:cx="5.7768284"
     inkscape:cy="-15.29244"
     inkscape:document-units="mm"
     inkscape:current-layer="layer1"
     showgrid="false"
     inkscape:window-width="1285"
     inkscape:window-height="744"
     inkscape:window-x="81"
     inkscape:window-y="24"
     inkscape:window-maximized="1" />
  <metadata
     id="metadata6929">
    <rdf:RDF>
      <cc:Work
         rdf:about="">
        <dc:format>image/svg+xml</dc:format>
        <dc:type
           rdf:resource="http://purl.org/dc/dcmitype/StillImage" />
        <dc:title></dc:title>
      </cc:Work>
    </rdf:RDF>
  </metadata>
  <g
     inkscape:label="Livello 1"
     inkscape:groupmode="layer"
     id="layer1"
     transform="translate(-15.369309,-82.147238)">
    <g
       aria-label="♖"
       style="font-style:normal;font-weight:normal;font-size:10.58333302px;line-height:125%;font-family:sans-serif;letter-spacing:0px;word-spacing:0px;fill:#000000;fill-opacity:1;stroke:none;stroke-width:0.20454392px;stroke-linecap:butt;stroke-linejoin:miter;stroke-opacity:1"
       id="text7479"
       transform="matrix(1.2935282,0,0,1.2935282,-4.5113255,-27.047812)">
      <path
         d="m 17.617233,84.416443 h 1.431438 v 0.800985 h 0.883667 v -0.800985 h 1.395263 v 0.837158 h -0.594279 v 0.744141 l -0.475423,0.775146 v 3.023072 l 0.475423,0.769978 v 0.738973 h 0.594279 v 0.842326 h -5.958292 v -0.842326 h 0.594279 v -0.738973 l 0.48059,-0.785481 h 0.0052 v -3.002401 h -0.0052 l -0.48059,-0.780314 v -0.744141 h -0.594279 v -0.837158 h 1.369425 v 0.800985 h 0.878499 z m 3.426148,7.441406 v -0.28422 h -5.384684 v 0.28422 z m -1.033529,-5.177978 0.423747,-0.676961 v -0.490927 h -4.16512 v 0.490927 l 0.423746,0.676961 z m -3.317627,3.358968 -0.377238,0.599446 v 0.661459 h 4.072103 v -0.661459 l -0.382405,-0.599446 z m 3.31246,-0.268718 v -2.816365 l 0.0052,-0.01033 h -3.317627 v 2.8267 z"
         style="stroke-width:0.20454392px"
         id="path7481"
         inkscape:connector-curvature="0" />
    </g>
    <g
       aria-label="♖"
       style="font-style:normal;font-weight:normal;font-size:10.58333302px;line-height:125%;font-family:sans-serif;letter-spacing:0px;word-spacing:0px;fill:#000000;fill-opacity:1;stroke:none;stroke-width:0.20454392px;stroke-linecap:butt;stroke-linejoin:miter;stroke-opacity:1"
       id="text7479-2"
       transform="matrix(1.2935282,0,0,1.2935282,-9.890866,-12.372505)">
      <path
         d="m 25.202193,80.512672 v -0.28422 h -5.384684 v 0.28422 z m -1.033529,-5.177978 0.423747,-0.676961 v -0.490927 h -4.16512 v 0.490927 l 0.423746,0.676961 z m -3.317627,3.358968 -0.377238,0.599446 v 0.661459 h 4.072103 v -0.661459 l -0.382405,-0.599446 z m 3.31246,-0.268718 v -2.816365 l 0.0052,-0.01033 H 20.85107 v 2.8267 z"
         style="fill:#fffffd;fill-opacity:1;stroke-width:0.20454392px"
         id="path7481-7"
         inkscape:connector-curvature="0"
         sodipodi:nodetypes="ccccccccccccccccccccccccc" />
    </g>
  </g>
</svg>
