<?xml version="1.0" encoding="UTF-8" standalone="no"?>
<!-- Created with Inkscape (http://www.inkscape.org/) -->

<svg
   xmlns:dc="http://purl.org/dc/elements/1.1/"
   xmlns:cc="http://creativecommons.org/ns#"
   xmlns:rdf="http://www.w3.org/1999/02/22-rdf-syntax-ns#"
   xmlns:svg="http://www.w3.org/2000/svg"
   xmlns="http://www.w3.org/2000/svg"
   xmlns:sodipodi="http://sodipodi.sourceforge.net/DTD/sodipodi-0.dtd"
   xmlns:inkscape="http://www.inkscape.org/namespaces/inkscape"
   width="10mm"
   height="10mm"
   viewBox="0 0 10 10"
   version="1.1"
   id="svg8"
   inkscape:version="0.92.2 (5c3e80d, 2017-08-06)"
   sodipodi:docname="question.svg">
  <defs
     id="defs2" />
  <sodipodi:namedview
     id="base"
     pagecolor="#ffffff"
     bordercolor="#666666"
     borderopacity="1.0"
     inkscape:pageopacity="0.0"
     inkscape:pageshadow="2"
     inkscape:zoom="7.9195959"
     inkscape:cx="18.839829"
     inkscape:cy="8.7986191"
     inkscape:document-units="mm"
     inkscape:current-layer="layer1"
     showgrid="false"
     inkscape:snap-object-midpoints="true"
     inkscape:object-nodes="false"
     inkscape:window-width="1283"
     inkscape:window-height="713"
     inkscape:window-x="83"
     inkscape:window-y="27"
     inkscape:window-maximized="1" />
  <metadata
     id="metadata5">
    <rdf:RDF>
      <cc:Work
         rdf:about="">
        <dc:format>image/svg+xml</dc:format>
        <dc:type
           rdf:resource="http://purl.org/dc/dcmitype/StillImage" />
        <dc:title />
      </cc:Work>
    </rdf:RDF>
  </metadata>
  <g
     inkscape:label="Livello 1"
     inkscape:groupmode="layer"
     id="layer1"
     transform="translate(-22.428099,-78.194031)">
    <g
       aria-label="?"
       style="font-style:normal;font-weight:normal;font-size:10.58333302px;line-height:125%;font-family:sans-serif;letter-spacing:0px;word-spacing:0px;fill:#333333;fill-opacity:1;stroke:none;stroke-width:0.20782536px;stroke-linecap:butt;stroke-linejoin:miter;stroke-opacity:1"
       id="text816"
       transform="matrix(1.2731041,0,0,1.2731041,6.7698182,-14.090956)">
      <path
         d="m 15.428301,79.030406 h 1.049032 v 1.312581 h -1.049032 z m 1.018026,-0.759644 h -0.98702 v -0.795817 q 0,-0.521932 0.144694,-0.857829 0.144694,-0.335896 0.609782,-0.780314 l 0.465088,-0.45992 q 0.294556,-0.273885 0.423747,-0.516764 0.134359,-0.242879 0.134359,-0.496094 0,-0.45992 -0.341065,-0.744141 -0.335897,-0.28422 -0.894002,-0.28422 -0.408244,0 -0.873332,0.180868 -0.45992,0.180867 -0.961181,0.527099 v -0.971517 q 0.485758,-0.294555 0.981852,-0.439249 0.501261,-0.144694 1.033528,-0.144694 0.950847,0 1.524455,0.501261 0.578776,0.501261 0.578776,1.322917 0,0.39274 -0.186035,0.749308 -0.186035,0.3514 -0.651123,0.795817 l -0.454753,0.444417 q -0.242879,0.242879 -0.346232,0.382406 -0.09819,0.134358 -0.139526,0.26355 -0.03101,0.10852 -0.04651,0.263549 -0.0155,0.15503 -0.0155,0.423747 z"
         style="fill:#333333;fill-opacity:1;stroke-width:0.20782536px"
         id="path818"
         inkscape:connector-curvature="0" />
    </g>
  </g>
</svg>
