<?xml version="1.0" encoding="UTF-8" standalone="no"?>
<!-- Created with Inkscape (http://www.inkscape.org/) -->

<svg
   xmlns:dc="http://purl.org/dc/elements/1.1/"
   xmlns:cc="http://creativecommons.org/ns#"
   xmlns:rdf="http://www.w3.org/1999/02/22-rdf-syntax-ns#"
   xmlns:svg="http://www.w3.org/2000/svg"
   xmlns="http://www.w3.org/2000/svg"
   xmlns:sodipodi="http://sodipodi.sourceforge.net/DTD/sodipodi-0.dtd"
   xmlns:inkscape="http://www.inkscape.org/namespaces/inkscape"
   width="6.417069mm"
   height="10mm"
   viewBox="0 0 6.417069 10"
   version="1.1"
   id="svg9312"
   inkscape:version="0.92.1 r15371"
   sodipodi:docname="piece-B.svg">
  <defs
     id="defs9306" />
  <sodipodi:namedview
     id="base"
     pagecolor="#ffffff"
     bordercolor="#666666"
     borderopacity="1.0"
     inkscape:pageopacity="0.0"
     inkscape:pageshadow="2"
     inkscape:zoom="7.9195959"
     inkscape:cx="22.410154"
     inkscape:cy="5.6006358"
     inkscape:document-units="mm"
     inkscape:current-layer="layer1"
     showgrid="false"
     inkscape:window-width="1285"
     inkscape:window-height="744"
     inkscape:window-x="81"
     inkscape:window-y="24"
     inkscape:window-maximized="1" />
  <metadata
     id="metadata9309">
    <rdf:RDF>
      <cc:Work
         rdf:about="">
        <dc:format>image/svg+xml</dc:format>
        <dc:type
           rdf:resource="http://purl.org/dc/dcmitype/StillImage" />
        <dc:title></dc:title>
      </cc:Work>
    </rdf:RDF>
  </metadata>
  <g
     inkscape:label="Livello 1"
     inkscape:groupmode="layer"
     id="layer1"
     transform="translate(113.39728,-99.523837)">
    <g
       aria-label="♗"
       style="font-style:normal;font-weight:normal;font-size:10.58333302px;line-height:125%;font-family:sans-serif;letter-spacing:0px;word-spacing:0px;fill:#000000;fill-opacity:1;stroke:none;stroke-width:0.20454539px;stroke-linecap:butt;stroke-linejoin:miter;stroke-opacity:1"
       id="text9859"
       transform="matrix(1.2935188,0,0,1.2935188,33.284236,-32.147309)">
      <path
         d="m -111.96585,107.43608 q -0.1602,-0.27388 -0.1602,-0.56844 0,-0.31006 0.16537,-0.58394 0.0413,-0.0879 0.0982,-0.1602 -0.31005,-0.19637 -0.49609,-0.52193 -0.21187,-0.37207 -0.21704,-0.78548 v -0.0207 q 0.005,-0.41341 0.21704,-0.79065 0.22221,-0.38757 0.62529,-0.60462 0.14469,-0.0723 0.29972,-0.12402 -0.13436,-0.093 -0.22221,-0.24288 -0.11369,-0.20154 -0.11369,-0.41341 0,-0.22221 0.11369,-0.41341 0.11886,-0.19637 0.32039,-0.30489 0.20154,-0.10852 0.41858,-0.10852 0.21188,0 0.41341,0.10852 0.20154,0.10852 0.31523,0.30489 0.11886,0.1912 0.11886,0.41341 0,0.21187 -0.10852,0.41341 -0.0827,0.14986 -0.21704,0.24805 0.14469,0.0465 0.29455,0.11885 0.39791,0.21705 0.62529,0.60462 0.21704,0.37724 0.2222,0.79065 v 0.0207 q -0.005,0.41341 -0.2222,0.78548 -0.19121,0.32039 -0.49093,0.51676 0.0568,0.0775 0.0982,0.16537 0.1602,0.27388 0.1602,0.58394 0,0.29973 -0.16536,0.57878 -0.0103,0.0155 -0.0207,0.0362 l 1.45727,2.04122 h -4.96094 l 1.40044,-2.08773 z m 1.35392,-1.72599 v -0.64079 h 0.88884 v -0.5581 h -0.88884 v -0.64079 h -0.60978 v 0.64079 h -0.88883 v 0.5581 h 0.88883 v 0.64079 z m 0.22738,1.72599 q 0.31006,-0.23254 0.31006,-0.60978 0,-0.22221 -0.11886,-0.42375 -0.11368,-0.20153 -0.31522,-0.30489 -0.19637,-0.10852 -0.41341,-0.10852 -0.21705,0 -0.41858,0.10852 -0.19637,0.10336 -0.31523,0.30489 -0.11369,0.20154 -0.11369,0.42375 0,0.33073 0.32556,0.60978 l -1.14721,1.757 h 3.35896 z m -1.02836,-5.12113 q -0.0775,0.13436 -0.0775,0.28422 0,0.14986 0.0724,0.28939 0.0775,0.13436 0.21188,0.2067 0.13952,0.0724 0.28938,0.0724 0.14986,0 0.28939,-0.0724 0.13953,-0.0723 0.21187,-0.2067 0.0775,-0.13953 0.0775,-0.28939 0,-0.14986 -0.0775,-0.28422 -0.0775,-0.13953 -0.21704,-0.20671 -0.13952,-0.0723 -0.28422,-0.0723 -0.14986,0 -0.28422,0.0723 -0.13436,0.0672 -0.21187,0.20671 z"
         style="stroke-width:0.20454539px"
         id="path9861"
         inkscape:connector-curvature="0" />
    </g>
    <g
       aria-label="♗"
       style="font-style:normal;font-weight:normal;font-size:10.58333302px;line-height:125%;font-family:sans-serif;letter-spacing:0px;word-spacing:0px;fill:#000000;fill-opacity:1;stroke:none;stroke-width:0.20454539px;stroke-linecap:butt;stroke-linejoin:miter;stroke-opacity:1"
       id="text9859-2"
       transform="matrix(1.2935188,0,0,1.2935188,42.931312,-2.9568605)">
      <path
         d="m -118.06994,83.143392 v -0.64079 h 0.88884 v -0.5581 h -0.88884 v -0.64079 h -0.60978 v 0.64079 h -0.88883 v 0.5581 h 0.88883 v 0.64079 z m 0.22738,1.72599 c 0.20671,-0.15503 0.31006,-0.35829 0.31006,-0.60978 0,-0.14814 -0.0396,-0.28939 -0.11886,-0.42375 -0.0758,-0.13435 -0.18086,-0.23598 -0.31522,-0.30489 -0.13091,-0.0724 -0.26872,-0.10852 -0.41341,-0.10852 -0.1447,0 -0.28423,0.0362 -0.41858,0.10852 -0.13091,0.0689 -0.23599,0.17054 -0.31523,0.30489 -0.0758,0.13436 -0.11369,0.27561 -0.11369,0.42375 0,0.22049 0.10852,0.42375 0.32556,0.60978 l -1.14721,1.757 h 3.35896 z m -1.02836,-5.12113 c -0.0517,0.0896 -0.0775,0.18431 -0.0775,0.28422 0,0.0999 0.0241,0.19637 0.0724,0.28939 0.0517,0.0896 0.12229,0.15847 0.21188,0.2067 0.093,0.0483 0.18947,0.0724 0.28938,0.0724 0.0999,0 0.19637,-0.0241 0.28939,-0.0724 0.093,-0.0482 0.16364,-0.1171 0.21187,-0.2067 0.0517,-0.093 0.0775,-0.18948 0.0775,-0.28939 0,-0.0999 -0.0258,-0.19465 -0.0775,-0.28422 -0.0517,-0.093 -0.12401,-0.16192 -0.21704,-0.20671 -0.093,-0.0482 -0.18775,-0.0723 -0.28422,-0.0723 -0.0999,0 -0.19465,0.0241 -0.28422,0.0723 -0.0896,0.0448 -0.1602,0.1137 -0.21187,0.20671 z"
         style="fill:#ffffff;fill-opacity:1;stroke-width:0.20454539px"
         id="path9861-6"
         inkscape:connector-curvature="0"
         sodipodi:nodetypes="ccccccccccccccsccsccscccccsccsccsccsccc" />
    </g>
  </g>
</svg>
