<?xml version="1.0" encoding="UTF-8" standalone="no"?>
<!-- Created with Inkscape (http://www.inkscape.org/) -->

<svg
   xmlns:dc="http://purl.org/dc/elements/1.1/"
   xmlns:cc="http://creativecommons.org/ns#"
   xmlns:rdf="http://www.w3.org/1999/02/22-rdf-syntax-ns#"
   xmlns:svg="http://www.w3.org/2000/svg"
   xmlns="http://www.w3.org/2000/svg"
   xmlns:sodipodi="http://sodipodi.sourceforge.net/DTD/sodipodi-0.dtd"
   xmlns:inkscape="http://www.inkscape.org/namespaces/inkscape"
   width="7.7673912mm"
   height="10mm"
   viewBox="0 0 7.7673912 10"
   version="1.1"
   id="svg8122"
   inkscape:version="0.92.1 r15371"
   sodipodi:docname="piece-N.svg">
  <defs
     id="defs8116" />
  <sodipodi:namedview
     id="base"
     pagecolor="#ffffff"
     bordercolor="#666666"
     borderopacity="1.0"
     inkscape:pageopacity="0.0"
     inkscape:pageshadow="2"
     inkscape:zoom="7.9195959"
     inkscape:cx="22.507168"
     inkscape:cy="2.3837516"
     inkscape:document-units="mm"
     inkscape:current-layer="layer1"
     showgrid="false"
     inkscape:window-width="1285"
     inkscape:window-height="744"
     inkscape:window-x="81"
     inkscape:window-y="24"
     inkscape:window-maximized="1" />
  <metadata
     id="metadata8119">
    <rdf:RDF>
      <cc:Work
         rdf:about="">
        <dc:format>image/svg+xml</dc:format>
        <dc:type
           rdf:resource="http://purl.org/dc/dcmitype/StillImage" />
        <dc:title></dc:title>
      </cc:Work>
    </rdf:RDF>
  </metadata>
  <g
     inkscape:label="Livello 1"
     inkscape:groupmode="layer"
     id="layer1"
     transform="translate(-109.08688,-49.630946)">
    <g
       aria-label="♘"
       style="font-style:normal;font-weight:normal;font-size:10.58333302px;line-height:125%;font-family:sans-serif;letter-spacing:0px;word-spacing:0px;fill:#000000;fill-opacity:1;stroke:none;stroke-width:0.20454392px;stroke-linecap:butt;stroke-linejoin:miter;stroke-opacity:1"
       id="text8669"
       transform="matrix(1.2935282,0,0,1.2935282,-32.020075,-17.503364)">
      <path
         d="m 111.46902,53.140391 q 0.0207,-0.04134 0.0207,-0.09819 0,-0.10852 -0.0568,-0.217041 -0.0568,-0.113688 -0.0568,-0.186035 0,-0.253215 0.36173,-0.738973 0.63046,0.537435 0.63046,1.069702 0,0.134359 -0.0413,0.273885 2.53214,1.669149 2.76468,6.387207 h -5.01261 q -0.0672,-0.289388 -0.0672,-0.589111 0,-0.826823 1.01803,-1.591634 1.01802,-0.764812 1.01802,-1.095541 v -0.03101 q -0.46508,0.594279 -0.75447,0.609782 -0.23771,0.733806 -1.0542,0.826823 l -0.0465,-0.113688 -0.22738,0.155029 q -0.7183,-0.237711 -0.8785,-0.651123 0.40308,-1.286743 0.40308,-2.27893 0,-0.15503 -0.0103,-0.299724 0.24805,-0.563273 0.62012,-1.193725 -0.10852,-0.165365 -0.12919,-0.211874 -0.0155,-0.05168 -0.0155,-0.07751 0,-0.139527 0.17053,-0.707967 0.53743,0.139526 0.81649,0.759643 z m -1.36426,1.431437 q 0.1912,-0.325561 0.6873,-0.325561 h 0.031 q -0.22221,0.237711 -0.22221,0.418579 0,0.253214 -0.35656,0.253214 h -0.10853 q -0.0413,0 -0.062,-0.155029 v -0.07751 z m -0.062,2.180746 0.0362,0.180867 q 0,0.268718 -0.37207,0.346232 h -0.0517 q -0.14469,0 -0.14469,-0.155029 v -0.118856 q 0.21187,-0.253214 0.53227,-0.253214 z m 0.79581,-3.50883 q -0.18086,-0.496094 -0.57877,-0.692464 -0.12919,0.320394 -0.12919,0.511597 0,0.139526 0.0723,0.227376 0.0775,0.08268 0.0775,0.1757 0,0.08268 -0.0569,0.160197 -0.30489,0.501261 -0.53226,1.012858 0.0207,0.227376 0.0207,0.454752 0,1.018026 -0.38241,2.010213 0.12919,0.392741 0.66146,0.516765 l 0.50126,-0.372071 -0.18087,0.382406 q 0.69764,-0.05168 0.8475,-0.795817 0.5426,-0.02067 0.96635,-0.914673 0.0568,0.155029 0.0568,0.310059 0,0.620117 -0.98702,1.333252 -0.98702,0.713134 -0.98702,1.35909 0,0.279053 0.062,0.54777 l 4.52169,-0.0052 q -0.20154,-4.25297 -2.75435,-6.216674 0.005,0 0.005,-0.0052 h -0.0207 q 0.1602,-0.05168 0.1602,-0.273885 0,-0.06201 -0.0362,-0.26355 -0.031,-0.206706 -0.42892,-0.589111 -0.16019,0.382405 -0.16019,0.594279 0,0.09819 0.0465,0.186035 0.0465,0.08268 0.0465,0.180868 0,0.08785 -0.0413,0.165364 z"
         style="stroke-width:0.20454392px"
         id="path8671"
         inkscape:connector-curvature="0" />
    </g>
    <g
       aria-label="♘"
       style="font-style:normal;font-weight:normal;font-size:10.58333302px;line-height:125%;font-family:sans-serif;letter-spacing:0px;word-spacing:0px;fill:#000000;fill-opacity:1;stroke:none;stroke-width:0.20454392px;stroke-linecap:butt;stroke-linejoin:miter;stroke-opacity:1"
       id="text8669-3"
       transform="matrix(1.2935282,0,0,1.2935282,-23.383016,-0.44252213)">
      <path
         d="m 103.42763,41.382443 c 0.12747,-0.217041 0.35657,-0.325561 0.6873,-0.325561 h 0.031 c -0.14814,0.158474 -0.22221,0.298 -0.22221,0.418579 0,0.168809 -0.11885,0.253214 -0.35656,0.253214 h -0.10853 c -0.0275,0 -0.0482,-0.05168 -0.062,-0.155029 v -0.07751 z m -0.062,2.180746 0.0362,0.180867 c 0,0.179145 -0.12402,0.294556 -0.37207,0.346232 h -0.0517 c -0.0965,0 -0.14469,-0.05168 -0.14469,-0.155029 v -0.118856 c 0.14125,-0.168809 0.31867,-0.253214 0.53227,-0.253214 z m 0.79581,-3.50883 c -0.12057,-0.330729 -0.3135,-0.561551 -0.57877,-0.692464 -0.0861,0.213596 -0.12919,0.384128 -0.12919,0.511597 0,0.09302 0.0241,0.168809 0.0723,0.227376 0.0517,0.05512 0.0775,0.113687 0.0775,0.1757 0,0.05512 -0.019,0.108519 -0.0569,0.160197 -0.20326,0.334174 -0.38068,0.671793 -0.53226,1.012858 0.0138,0.151584 0.0207,0.303168 0.0207,0.454752 0,0.678684 -0.12747,1.348755 -0.38241,2.010213 0.0861,0.261827 0.30661,0.434082 0.66146,0.516765 l 0.50126,-0.372071 -0.18087,0.382406 c 0.46509,-0.03445 0.74759,-0.299726 0.8475,-0.795817 0.36173,-0.01378 0.68385,-0.318671 0.96635,-0.914673 0.0379,0.103353 0.0568,0.206706 0.0568,0.310059 0,0.413411 -0.32901,0.857829 -0.98702,1.333252 -0.65801,0.475423 -0.98702,0.928453 -0.98702,1.35909 0,0.186035 0.0207,0.368625 0.062,0.54777 l 4.52169,-0.0052 c -0.13436,-2.835313 -1.05248,-4.907538 -2.75435,-6.216674 0.003,0 0.005,-0.0017 0.005,-0.0052 h -0.0207 c 0.1068,-0.03445 0.1602,-0.125748 0.1602,-0.273885 0,-0.04134 -0.0121,-0.12919 -0.0362,-0.26355 -0.0207,-0.137804 -0.16364,-0.334174 -0.42892,-0.589111 -0.10679,0.254937 -0.16019,0.45303 -0.16019,0.594279 0,0.06546 0.0155,0.127472 0.0465,0.186035 0.031,0.05512 0.0465,0.115409 0.0465,0.180868 0,0.05857 -0.0138,0.113688 -0.0413,0.165364 z"
         style="fill:#ffffff;fill-opacity:1;stroke-width:0.20454392px"
         id="path8671-6"
         inkscape:connector-curvature="0"
         sodipodi:nodetypes="cscsssccccccsscccccscsccsccccccssscccccsccscscc" />
    </g>
  </g>
</svg>
