<?xml version="1.0" encoding="UTF-8" standalone="no"?>
<!-- Created with Inkscape (http://www.inkscape.org/) -->

<svg
   xmlns:dc="http://purl.org/dc/elements/1.1/"
   xmlns:cc="http://creativecommons.org/ns#"
   xmlns:rdf="http://www.w3.org/1999/02/22-rdf-syntax-ns#"
   xmlns:svg="http://www.w3.org/2000/svg"
   xmlns="http://www.w3.org/2000/svg"
   xmlns:sodipodi="http://sodipodi.sourceforge.net/DTD/sodipodi-0.dtd"
   xmlns:inkscape="http://www.inkscape.org/namespaces/inkscape"
   width="10mm"
   height="10.000002mm"
   viewBox="0 0 10 10.000002"
   version="1.1"
   id="svg8"
   inkscape:version="0.92.1 r15371"
   sodipodi:docname="Q.svg">
  <defs
     id="defs2" />
  <sodipodi:namedview
     id="base"
     pagecolor="#ffffff"
     bordercolor="#666666"
     borderopacity="1.0"
     inkscape:pageopacity="0.0"
     inkscape:pageshadow="2"
     inkscape:zoom="5.6"
     inkscape:cx="13.537666"
     inkscape:cy="-10.755395"
     inkscape:document-units="mm"
     inkscape:current-layer="layer1"
     showgrid="false"
     inkscape:snap-nodes="true"
     inkscape:object-nodes="true"
     inkscape:snap-object-midpoints="true"
     inkscape:snap-others="false"
     inkscape:object-paths="true"
     inkscape:window-width="1285"
     inkscape:window-height="744"
     inkscape:window-x="81"
     inkscape:window-y="24"
     inkscape:window-maximized="1" />
  <metadata
     id="metadata5">
    <rdf:RDF>
      <cc:Work
         rdf:about="">
        <dc:format>image/svg+xml</dc:format>
        <dc:type
           rdf:resource="http://purl.org/dc/dcmitype/StillImage" />
        <dc:title></dc:title>
      </cc:Work>
    </rdf:RDF>
  </metadata>
  <g
     inkscape:label="Livello 1"
     inkscape:groupmode="layer"
     id="layer1"
     transform="translate(-59.75782,-136.56547)">
    <g
       aria-label="♕"
       style="font-style:normal;font-weight:normal;font-size:10.58333302px;line-height:125%;font-family:sans-serif;letter-spacing:0px;word-spacing:0px;fill:#000000;fill-opacity:1;stroke:none;stroke-width:0.2045446px;stroke-linecap:butt;stroke-linejoin:miter;stroke-opacity:1"
       id="text4489"
       transform="matrix(1.2935238,0,0,1.2935238,-17.650227,-43.020463)">
      <path
         d="m 60.685112,141.29965 q -0.490926,-0.0103 -0.552938,-0.50126 0,-0.1447 0.07235,-0.27389 0.07751,-0.13436 0.217041,-0.20671 0.139527,-0.0723 0.289388,-0.0723 0.144694,0 0.284221,0.0723 0.139526,0.0724 0.211873,0.20671 0.07235,0.12919 0.07235,0.27389 -0.02067,0.33072 -0.315226,0.44441 l 1.235066,2.61483 -0.268717,-3.62768 q -0.428914,0 -0.521932,-0.4806 0,-0.14469 0.07235,-0.27388 0.07751,-0.12919 0.211873,-0.20154 0.139527,-0.0724 0.299724,-0.0724 0.144694,0 0.279052,0.0724 0.139527,0.0724 0.211874,0.20154 0.07751,0.12919 0.07751,0.27388 -0.01033,0.23255 -0.248046,0.40825 l 0.976684,3.8654 0.222209,-4.23747 q -0.346232,-0.15503 -0.356568,-0.40308 0,-0.14469 0.07751,-0.27905 0.07751,-0.13436 0.211873,-0.20154 0.139527,-0.0672 0.279053,-0.0672 0.149862,0 0.28422,0.0672 0.139527,0.0672 0.217041,0.20154 0.07752,0.13436 0.07752,0.27905 -0.0155,0.27905 -0.361735,0.40308 l 0.196371,4.2478 0.956013,-3.82406 Q 64.8554,139.9664 64.8554,139.74935 q 0,-0.13952 0.07235,-0.26871 0.07752,-0.13436 0.217041,-0.20671 0.139526,-0.0724 0.279053,-0.0724 0.155029,0 0.294555,0.0724 0.139527,0.0724 0.211874,0.20671 0.07751,0.12919 0.07751,0.26871 -0.05684,0.43925 -0.501261,0.52194 l -0.475423,3.58634 1.328084,-2.66134 q -0.222209,-0.1757 -0.222209,-0.3979 0,-0.1447 0.07235,-0.27389 0.07752,-0.13436 0.211874,-0.20154 0.139526,-0.0723 0.28422,-0.0723 0.155029,0 0.289388,0.0723 0.139527,0.0672 0.211874,0.20154 0.07751,0.12919 0.07751,0.27389 -0.06718,0.48575 -0.578776,0.48575 l -0.826823,2.39262 v 2.88872 h -4.44934 v -2.88872 z m 4.898926,3.87056 v -1.16272 l -0.935344,0.38758 H 62.77284 l -0.945679,-0.31523 v 1.09037 z m -3.756877,0.24805 v 0.84749 h 3.756877 v -0.84749 z m -0.217041,-1.757 0.397909,0.21704 -1.193726,-2.71818 q 0.03617,-0.0155 0.07235,-0.0362 0.09302,-0.0517 0.144694,-0.13953 0.05168,-0.093 0.05168,-0.1912 0,-0.10335 -0.05168,-0.1912 -0.05168,-0.093 -0.144694,-0.1447 -0.08785,-0.0517 -0.191203,-0.0517 -0.09302,0 -0.186035,0.0517 -0.08785,0.0517 -0.144694,0.1447 -0.05168,0.0879 -0.05168,0.1912 0,0.0982 0.05168,0.1912 0.05168,0.0879 0.144694,0.13953 0.09302,0.0517 0.186035,0.0517 0.03617,0 0.08268,-0.005 z m 0.769979,0.19637 0.702799,0.16537 -0.966349,-3.93258 q 0.03101,-0.0103 0.05684,-0.0258 0.08785,-0.0517 0.134359,-0.13953 0.05168,-0.093 0.05168,-0.1912 0,-0.0982 -0.05168,-0.1912 -0.04651,-0.093 -0.139526,-0.13953 -0.09302,-0.0517 -0.186036,-0.0517 -0.09819,0 -0.191202,0.0517 -0.08785,0.0465 -0.139527,0.13953 -0.05168,0.093 -0.05168,0.1912 0,0.0982 0.04651,0.1912 0.05168,0.0879 0.144694,0.13953 0.09302,0.0517 0.191202,0.0517 0.03617,0 0.07751,-0.005 z m 1.896525,0.12402 0.594279,-0.13952 0.496094,-3.72587 q 0.02584,0.005 0.05168,0.005 0.09819,0 0.191203,-0.0517 0.09819,-0.0517 0.144694,-0.13953 0.05168,-0.093 0.05168,-0.1912 0,-0.0982 -0.05684,-0.1912 -0.05168,-0.093 -0.144694,-0.13953 -0.08785,-0.0517 -0.186035,-0.0517 -0.09302,0 -0.186035,0.0517 -0.09302,0.0465 -0.144694,0.13953 -0.05168,0.093 -0.05168,0.1912 0,0.0982 0.05168,0.1912 0.05168,0.0879 0.144694,0.13953 0.04134,0.0258 0.07751,0.0362 z m -0.816488,0.0413 h 0.516765 l -0.248047,-4.30982 q 0.09819,0 0.180867,-0.0517 0.08785,-0.0517 0.139527,-0.13952 0.05684,-0.093 0.05684,-0.19637 0,-0.0982 -0.05684,-0.18604 -0.05684,-0.093 -0.144694,-0.14469 -0.08785,-0.0517 -0.186036,-0.0517 -0.09302,0 -0.191202,0.0517 -0.09302,0.0517 -0.144694,0.14469 -0.04651,0.0879 -0.04651,0.18604 0,0.10335 0.04651,0.19637 0.05168,0.0878 0.149861,0.13952 0.07235,0.0414 0.149862,0.0517 z m 1.756999,-0.1447 0.537435,-0.21704 0.857829,-2.53215 q 0.05684,0.0155 0.113688,0.0155 0.09818,0 0.186035,-0.0517 0.09302,-0.0568 0.144694,-0.14469 0.05168,-0.0879 0.05168,-0.19121 0,-0.0982 -0.05684,-0.1912 -0.05168,-0.093 -0.139526,-0.13952 -0.08785,-0.0517 -0.186035,-0.0517 -0.103353,0 -0.196371,0.0517 -0.08785,0.0465 -0.139526,0.13952 -0.04651,0.093 -0.04651,0.1912 0,0.10336 0.04651,0.19121 0.05168,0.0879 0.144694,0.14469 0.02067,0.0103 0.03617,0.0207 z"
         style="stroke-width:0.2045446px"
         id="path4491"
         inkscape:connector-curvature="0" />
    </g>
    <g
       aria-label="♕"
       style="font-style:normal;font-weight:normal;font-size:10.58333302px;line-height:125%;font-family:sans-serif;letter-spacing:0px;word-spacing:0px;fill:#000000;fill-opacity:1;stroke:none;stroke-width:0.2045446px;stroke-linecap:butt;stroke-linejoin:miter;stroke-opacity:1"
       id="text4489-3"
       transform="matrix(1.2935238,0,0,1.2935238,-13.238407,-32.067336)">
      <path
         d="m 62.173339,136.70254 v -1.16272 l -0.935344,0.38758 h -1.875854 l -0.945679,-0.31523 v 1.09037 z m -3.756877,0.24805 v 0.84749 h 3.756877 v -0.84749 z m -0.217041,-1.757 0.397909,0.21704 -1.193726,-2.71818 c 0.02411,-0.0103 0.04823,-0.0224 0.07235,-0.0362 0.06201,-0.0345 0.110245,-0.081 0.144694,-0.13953 0.03445,-0.062 0.05168,-0.12573 0.05168,-0.1912 0,-0.0689 -0.01723,-0.13263 -0.05168,-0.1912 -0.03445,-0.062 -0.08268,-0.11023 -0.144694,-0.1447 -0.05857,-0.0345 -0.122301,-0.0517 -0.191203,-0.0517 -0.06201,0 -0.124025,0.0172 -0.186035,0.0517 -0.05857,0.0345 -0.106798,0.0827 -0.144694,0.1447 -0.03445,0.0586 -0.05168,0.12233 -0.05168,0.1912 0,0.0655 0.01723,0.1292 0.05168,0.1912 0.03445,0.0586 0.08268,0.10511 0.144694,0.13953 0.06201,0.0345 0.124025,0.0517 0.186035,0.0517 0.02411,0 0.05167,-0.002 0.08268,-0.005 z m 0.769979,0.19637 0.702799,0.16537 -0.966349,-3.93258 c 0.02067,-0.007 0.03962,-0.0155 0.05684,-0.0258 0.05857,-0.0345 0.103353,-0.081 0.134359,-0.13953 0.03445,-0.062 0.05168,-0.12573 0.05168,-0.1912 0,-0.0655 -0.01723,-0.1292 -0.05168,-0.1912 -0.03101,-0.062 -0.07751,-0.10851 -0.139526,-0.13953 -0.06201,-0.0345 -0.124025,-0.0517 -0.186036,-0.0517 -0.06546,0 -0.129194,0.0172 -0.191202,0.0517 -0.05857,0.031 -0.105076,0.0775 -0.139527,0.13953 -0.03445,0.062 -0.05168,0.12573 -0.05168,0.1912 0,0.0655 0.0155,0.1292 0.04651,0.1912 0.03445,0.0586 0.08268,0.10511 0.144694,0.13953 0.06201,0.0345 0.125747,0.0517 0.191202,0.0517 0.02411,0 0.04995,-0.002 0.07751,-0.005 z m 1.896525,0.12402 0.594279,-0.13952 0.496094,-3.72587 c 0.01723,0.003 0.03445,0.005 0.05168,0.005 0.06546,0 0.129194,-0.0172 0.191203,-0.0517 0.06546,-0.0345 0.113691,-0.081 0.144694,-0.13953 0.03445,-0.062 0.05168,-0.12573 0.05168,-0.1912 0,-0.0655 -0.01895,-0.1292 -0.05684,-0.1912 -0.03445,-0.062 -0.08268,-0.10851 -0.144694,-0.13953 -0.05857,-0.0345 -0.120578,-0.0517 -0.186035,-0.0517 -0.06201,0 -0.124025,0.0172 -0.186035,0.0517 -0.06201,0.031 -0.110245,0.0775 -0.144694,0.13953 -0.03445,0.062 -0.05168,0.12573 -0.05168,0.1912 0,0.0655 0.01723,0.1292 0.05168,0.1912 0.03445,0.0586 0.08268,0.10511 0.144694,0.13953 0.02756,0.0172 0.0534,0.0293 0.07751,0.0362 z m -0.816488,0.0413 h 0.516765 l -0.248047,-4.30982 c 0.06546,0 0.125749,-0.0172 0.180867,-0.0517 0.05857,-0.0345 0.105076,-0.081 0.139527,-0.13952 0.03789,-0.062 0.05684,-0.12746 0.05684,-0.19637 0,-0.0655 -0.01895,-0.12748 -0.05684,-0.18604 -0.03789,-0.062 -0.08613,-0.11023 -0.144694,-0.14469 -0.05857,-0.0345 -0.120579,-0.0517 -0.186036,-0.0517 -0.06201,0 -0.125747,0.0172 -0.191202,0.0517 -0.06201,0.0345 -0.110245,0.0827 -0.144694,0.14469 -0.03101,0.0586 -0.04651,0.12061 -0.04651,0.18604 0,0.0689 0.0155,0.13436 0.04651,0.19637 0.03445,0.0585 0.08441,0.10504 0.149861,0.13952 0.04823,0.0276 0.09819,0.0448 0.149862,0.0517 z m 1.756999,-0.1447 0.537435,-0.21704 0.857829,-2.53215 c 0.03789,0.0103 0.07579,0.0155 0.113688,0.0155 0.06545,0 0.127465,-0.0172 0.186035,-0.0517 0.06201,-0.0379 0.110245,-0.0861 0.144694,-0.14469 0.03445,-0.0586 0.05168,-0.12234 0.05168,-0.19121 0,-0.0655 -0.01895,-0.1292 -0.05684,-0.1912 -0.03445,-0.062 -0.08096,-0.10851 -0.139526,-0.13952 -0.05857,-0.0345 -0.120578,-0.0517 -0.186035,-0.0517 -0.0689,0 -0.134359,0.0172 -0.196371,0.0517 -0.05857,0.031 -0.105075,0.0775 -0.139526,0.13952 -0.03101,0.062 -0.04651,0.12573 -0.04651,0.1912 0,0.0689 0.0155,0.13264 0.04651,0.19121 0.03445,0.0586 0.08268,0.10683 0.144694,0.14469 0.01378,0.007 0.02584,0.0138 0.03617,0.0207 z"
         style="fill:#ffffff;fill-opacity:1;stroke-width:0.2045446px"
         id="path4491-6"
         inkscape:connector-curvature="0"
         sodipodi:nodetypes="cccccccccccccccccsccsccsccscccccccsccsccsccscccccsccsccsccscccccccccsccsccscccccccsccsccsccscccc" />
    </g>
  </g>
</svg>
