<?xml version="1.0" encoding="UTF-8" standalone="no"?>
<!-- Created with Inkscape (http://www.inkscape.org/) -->

<svg
   xmlns:dc="http://purl.org/dc/elements/1.1/"
   xmlns:cc="http://creativecommons.org/ns#"
   xmlns:rdf="http://www.w3.org/1999/02/22-rdf-syntax-ns#"
   xmlns:svg="http://www.w3.org/2000/svg"
   xmlns="http://www.w3.org/2000/svg"
   xmlns:sodipodi="http://sodipodi.sourceforge.net/DTD/sodipodi-0.dtd"
   xmlns:inkscape="http://www.inkscape.org/namespaces/inkscape"
   width="10.000008mm"
   height="10mm"
   viewBox="0 0 10.000008 10"
   version="1.1"
   id="svg8"
   inkscape:version="0.92.1 r15371"
   sodipodi:docname="settings.svg">
  <defs
     id="defs2" />
  <sodipodi:namedview
     id="base"
     pagecolor="#ffffff"
     bordercolor="#666666"
     borderopacity="1.0"
     inkscape:pageopacity="0.0"
     inkscape:pageshadow="2"
     inkscape:zoom="5.6"
     inkscape:cx="-22.018695"
     inkscape:cy="-4.7235108"
     inkscape:document-units="mm"
     inkscape:current-layer="layer1"
     showgrid="false"
     inkscape:object-nodes="false"
     inkscape:snap-object-midpoints="true"
     inkscape:window-width="1285"
     inkscape:window-height="744"
     inkscape:window-x="81"
     inkscape:window-y="24"
     inkscape:window-maximized="1" />
  <metadata
     id="metadata5">
    <rdf:RDF>
      <cc:Work
         rdf:about="">
        <dc:format>image/svg+xml</dc:format>
        <dc:type
           rdf:resource="http://purl.org/dc/dcmitype/StillImage" />
        <dc:title />
      </cc:Work>
    </rdf:RDF>
  </metadata>
  <g
     inkscape:label="Livello 1"
     inkscape:groupmode="layer"
     id="layer1"
     transform="translate(-15.119412,-136.74634)">
    <g
       aria-label="⚙"
       style="font-style:normal;font-weight:normal;font-size:10.58333302px;line-height:125%;font-family:sans-serif;letter-spacing:0px;word-spacing:0px;fill:#333333;fill-opacity:1;stroke:none;stroke-width:0.20823447px;stroke-linecap:butt;stroke-linejoin:miter;stroke-opacity:1"
       id="text4487"
       transform="matrix(1.2706028,0,0,1.2706028,-4.1579794,-39.709974)">
      <path
         d="m 18.657406,138.90186 q 0.222208,-0.0258 0.449585,-0.0258 0.227376,0 0.449585,0.0258 l 0.134358,0.96635 q 0.346232,0.0672 0.676962,0.22221 l 0.651123,-0.68213 q 0.39274,0.23254 0.72347,0.56327 l -0.434082,0.80616 q 0.242879,0.25838 0.413411,0.56844 l 0.852661,-0.1602 q 0.191203,0.43408 0.273885,0.9095 l -0.764811,0.35657 q 0.02067,0.18087 0.02067,0.35657 0,0.1757 -0.02067,0.35657 l 0.764811,0.36173 q -0.08268,0.47026 -0.273885,0.90434 l -0.852661,-0.1602 q -0.170532,0.31006 -0.413411,0.57361 l 0.434082,0.80098 q -0.33073,0.33073 -0.72347,0.56845 l -0.651123,-0.68213 q -0.33073,0.14986 -0.676962,0.22221 l -0.134358,0.96118 q -0.222209,0.031 -0.449585,0.031 -0.227377,0 -0.449585,-0.031 l -0.134359,-0.96118 q -0.346232,-0.0724 -0.676961,-0.22221 l -0.651123,0.68213 q -0.392741,-0.23772 -0.72347,-0.56845 l 0.434082,-0.80098 q -0.24288,-0.25838 -0.413412,-0.57361 l -0.852661,0.1602 q -0.191203,-0.43408 -0.273885,-0.90434 l 0.764811,-0.36173 q -0.02067,-0.18087 -0.02067,-0.35657 0,-0.1757 0.02067,-0.35657 l -0.764811,-0.35657 q 0.08268,-0.47542 0.273885,-0.9095 l 0.852661,0.1602 q 0.170532,-0.31006 0.413412,-0.57361 l -0.434082,-0.80099 q 0.330729,-0.33073 0.72347,-0.56327 l 0.651123,0.67696 q 0.330729,-0.14986 0.676961,-0.21704 z m 2.056722,2.30477 q -0.666626,-0.67179 -1.607137,-0.67179 -0.940511,0 -1.607137,0.67179 -0.666626,0.66663 -0.666626,1.60714 0,0.93534 0.666626,1.60197 0.666626,0.66662 1.607137,0.66662 0.940511,0 1.607137,-0.66662 0.666626,-0.66663 0.666626,-1.60197 0,-0.94051 -0.666626,-1.60714 z m -1.043864,1.0387 q 0.237711,0.23254 0.237711,0.56327 0,0.33073 -0.237711,0.56844 -0.232544,0.23254 -0.563273,0.23254 -0.330729,0 -0.568441,-0.23254 -0.232544,-0.23771 -0.232544,-0.56844 0,-0.33073 0.232544,-0.56327 0.237712,-0.23772 0.568441,-0.23772 0.330729,0 0.563273,0.23772 z"
         style="stroke-width:0.20823447px;fill:#333333;fill-opacity:1"
         id="path4489"
         inkscape:connector-curvature="0" />
    </g>
  </g>
</svg>
