<?xml version="1.0" encoding="UTF-8" standalone="no"?>
<!-- Created with Inkscape (http://www.inkscape.org/) -->

<svg
   xmlns:dc="http://purl.org/dc/elements/1.1/"
   xmlns:cc="http://creativecommons.org/ns#"
   xmlns:rdf="http://www.w3.org/1999/02/22-rdf-syntax-ns#"
   xmlns:svg="http://www.w3.org/2000/svg"
   xmlns="http://www.w3.org/2000/svg"
   xmlns:sodipodi="http://sodipodi.sourceforge.net/DTD/sodipodi-0.dtd"
   xmlns:inkscape="http://www.inkscape.org/namespaces/inkscape"
   width="10mm"
   height="10mm"
   viewBox="0 0 10 10"
   version="1.1"
   id="svg8"
   inkscape:version="0.92.2 (5c3e80d, 2017-08-06)"
   sodipodi:docname="thumbs_up_down.svg">
  <defs
     id="defs2" />
  <sodipodi:namedview
     id="base"
     pagecolor="#ffffff"
     bordercolor="#666666"
     borderopacity="1.0"
     inkscape:pageopacity="0.0"
     inkscape:pageshadow="2"
     inkscape:zoom="5.6"
     inkscape:cx="8.8566946"
     inkscape:cy="7.1666825"
     inkscape:document-units="mm"
     inkscape:current-layer="layer1"
     showgrid="false"
     inkscape:snap-object-midpoints="true"
     inkscape:object-nodes="false"
     inkscape:window-width="1283"
     inkscape:window-height="713"
     inkscape:window-x="83"
     inkscape:window-y="27"
     inkscape:window-maximized="1"
     showguides="true"
     inkscape:guide-bbox="true">
    <sodipodi:guide
       position="7.4999998,2.4999999"
       orientation="1,0"
       id="guide880"
       inkscape:locked="false"
       inkscape:label=""
       inkscape:color="rgb(0,0,255)" />
  </sodipodi:namedview>
  <metadata
     id="metadata5">
    <rdf:RDF>
      <cc:Work
         rdf:about="">
        <dc:format>image/svg+xml</dc:format>
        <dc:type
           rdf:resource="http://purl.org/dc/dcmitype/StillImage" />
        <dc:title />
      </cc:Work>
    </rdf:RDF>
  </metadata>
  <g
     inkscape:label="Livello 1"
     inkscape:groupmode="layer"
     id="layer1"
     transform="translate(-12.803943,-83.459816)">
    <g
       aria-label="ðŸ‘"
       style="font-style:normal;font-weight:normal;font-size:10.58333302px;line-height:125%;font-family:sans-serif;letter-spacing:0px;word-spacing:0px;fill:#f8f8f8;fill-opacity:1;stroke:none;stroke-width:0.34947473px;stroke-linecap:butt;stroke-linejoin:miter;stroke-opacity:1"
       id="text817-36"
       transform="matrix(0.75708859,0,0,0.75708859,-5.7079659,16.156236)">
      <path
         d="m 30.16944,93.360152 c 0,-0.337619 -0.05857,-0.670071 -0.175699,-0.997355 -0.430637,0 -0.701077,-0.02412 -0.81132,-0.07235 -0.106798,-0.05167 -0.261827,-0.213593 -0.465088,-0.485759 -0.261827,-0.354845 -0.406521,-0.546047 -0.434082,-0.573608 L 27.244554,90.125204 27.037849,89.16919 c -0.34451,0.117133 -0.516765,0.33762 -0.516765,0.661459 0,0.161919 0.08096,0.382405 0.24288,0.661458 0.254937,0.437527 0.391018,0.91295 0.408243,1.426269 -1.223009,0 -1.834513,0.218764 -1.834513,0.656291 0,0.206706 0.07062,0.377238 0.211873,0.511597 0.144695,0.130913 0.320395,0.198093 0.5271,0.201538 l 0.315226,0.0052 0.935344,-0.423746 c -0.141249,-0.213596 -0.33073,-0.320394 -0.568441,-0.320394 -0.124023,0 -0.316949,0.05512 -0.578776,0.165364 l -0.242879,0.01034 -0.242879,-0.258382 0.418579,-0.0052 c 0.230821,-0.09991 0.432359,-0.149862 0.604614,-0.149862 0.440972,0 0.763088,0.223931 0.966349,0.671794 l -0.1757,0.08268 c 0.217041,0.106798 0.384129,0.292833 0.501262,0.558106 l -0.201538,0.08785 c 0.158474,0.09991 0.30489,0.270439 0.439249,0.511596 l -0.320394,0.149862 c 0.1757,0.127469 0.316949,0.308336 0.423747,0.542602 l -0.63562,0.284221 c 0.09991,0.02067 0.187758,0.03101 0.26355,0.03101 0.02411,0 0.09129,-0.0017 0.201538,-0.0052 0.458197,-0.265273 0.830268,-0.587389 1.116211,-0.966349 h 0.713134 c 0.106798,-0.313504 0.160197,-0.613227 0.160197,-0.89917 z m -2.516642,0.149861 C 27.53222,93.348094 27.387526,93.244741 27.218716,93.199955 l -0.769979,0.346232 h -0.310058 c -0.234267,0 -0.418579,-0.03617 -0.552938,-0.108521 -0.04479,0.06201 -0.06718,0.12058 -0.06718,0.1757 0,0.213596 0.199815,0.320394 0.599446,0.320394 h 0.578776 z m 0.217041,0.604615 c -0.106798,-0.127469 -0.218764,-0.220486 -0.335897,-0.279053 l -0.790649,0.3514 -0.837158,-0.0052 c -0.0035,0.02067 -0.0086,0.04307 -0.0155,0.06718 0,0.203261 0.191203,0.304891 0.573608,0.304891 h 0.418579 z m 0.108521,0.697632 c -0.120579,-0.155027 -0.222209,-0.263546 -0.304891,-0.325558 l -0.738973,0.330729 h -0.475423 v 0.03101 c 0,0.230821 0.167087,0.346232 0.501261,0.346232 h 0.170532 z"
         style="fill:#f8f8f8;fill-opacity:1;stroke-width:0.34947473px"
         id="path819-7"
         inkscape:connector-curvature="0"
         sodipodi:nodetypes="cccccccsccsccccsccccsccccccccsccccccccscsscccccccsccccccsscc" />
    </g>
    <g
       aria-label="ðŸ‘"
       style="font-style:normal;font-weight:normal;font-size:10.58333302px;line-height:125%;font-family:sans-serif;letter-spacing:0px;word-spacing:0px;fill:#333333;fill-opacity:1;stroke:none;stroke-width:0.34947473px;stroke-linecap:butt;stroke-linejoin:miter;stroke-opacity:1"
       id="text817-3-5"
       transform="matrix(0.75708859,0,0,-0.75708859,-16.104274,167.65162)">
      <path
         d="m 50.505644,102.58765 c 0,-0.33762 -0.05857,-0.67007 -0.175699,-0.99736 -0.430637,0 -0.701077,-0.0241 -0.81132,-0.0724 -0.106798,-0.0517 -0.261827,-0.21359 -0.465088,-0.48575 -0.261827,-0.35485 -0.406521,-0.54605 -0.434082,-0.57361 l -1.038697,-1.105879 -0.206705,-0.956014 c -0.34451,0.117133 -0.516765,0.33762 -0.516765,0.661459 0,0.161919 0.08096,0.382405 0.24288,0.661458 0.254937,0.437526 0.391018,0.912946 0.408243,1.426266 -1.223009,0 -1.834513,0.21877 -1.834513,0.65629 0,0.20671 0.07062,0.37724 0.211873,0.5116 0.144695,0.13091 0.320395,0.19809 0.5271,0.20154 l 0.315226,0.005 0.935344,-0.42375 c -0.141249,-0.21359 -0.33073,-0.32039 -0.568441,-0.32039 -0.124023,0 -0.316949,0.0551 -0.578776,0.16536 l -0.242879,0.0103 -0.242879,-0.25838 0.418579,-0.005 c 0.230821,-0.0999 0.432359,-0.14986 0.604614,-0.14986 0.440972,0 0.763088,0.22393 0.966349,0.67179 l -0.1757,0.0827 c 0.217041,0.1068 0.384129,0.29284 0.501262,0.55811 l -0.201538,0.0878 c 0.158474,0.0999 0.30489,0.27044 0.439249,0.5116 l -0.320394,0.14986 c 0.1757,0.12747 0.316949,0.30833 0.423747,0.5426 l -0.63562,0.28422 c 0.09991,0.0207 0.187758,0.031 0.26355,0.031 0.02411,0 0.09129,-0.002 0.201538,-0.005 0.458197,-0.26527 0.830268,-0.58739 1.116211,-0.96635 h 0.713134 c 0.106798,-0.3135 0.160197,-0.61323 0.160197,-0.89917 z m -2.516642,0.14986 c -0.120578,-0.16192 -0.265272,-0.26527 -0.434082,-0.31006 l -0.769979,0.34623 h -0.310058 c -0.234267,0 -0.418579,-0.0362 -0.552938,-0.10852 -0.04479,0.062 -0.06718,0.12058 -0.06718,0.1757 0,0.2136 0.199815,0.3204 0.599446,0.3204 h 0.578776 z m 0.217041,0.60462 c -0.106798,-0.12747 -0.218764,-0.22049 -0.335897,-0.27906 l -0.790649,0.3514 -0.837158,-0.005 c -0.0035,0.0207 -0.0086,0.0431 -0.0155,0.0672 0,0.20326 0.191203,0.30489 0.573608,0.30489 h 0.418579 z m 0.108521,0.69763 c -0.120579,-0.15503 -0.222209,-0.26355 -0.304891,-0.32556 l -0.738973,0.33073 h -0.475423 v 0.031 c 0,0.23082 0.167087,0.34623 0.501261,0.34623 h 0.170532 z"
         style="fill:#f8f8f8;fill-opacity:1;stroke-width:0.34947473px"
         id="path819-6-3"
         inkscape:connector-curvature="0"
         sodipodi:nodetypes="cccccccsccsccccsccccsccccccccsccccccccscsscccccccsccccccsscc" />
    </g>
    <g
       aria-label="ðŸ‘"
       style="font-style:normal;font-weight:normal;font-size:10.58333302px;line-height:125%;font-family:sans-serif;letter-spacing:0px;word-spacing:0px;fill:#333333;fill-opacity:1;stroke:none;stroke-width:0.34947473px;stroke-linecap:butt;stroke-linejoin:miter;stroke-opacity:1"
       id="text817"
       transform="matrix(0.75708858,0,0,0.75708858,-5.7099288,16.205141)">
      <path
         d="m 30.43299,93.303312 q 0,0.609782 -0.253214,1.224731 h -0.769979 q -0.532267,0.609782 -1.152385,0.894002 -0.186035,0.0155 -0.289388,0.0155 -0.263549,0 -0.599446,-0.09302 l -0.186035,0.09302 h -0.222209 q -0.759643,0 -0.759643,-0.511596 0,-0.06201 0.01034,-0.124024 -0.558106,-0.04651 -0.558106,-0.54777 0,-0.06201 0.01034,-0.129191 -0.418579,-0.113688 -0.418579,-0.511597 0,-0.160197 0.113688,-0.341064 -0.279053,-0.299723 -0.279053,-0.666626 0,-0.940511 1.808675,-0.940511 -0.06718,-0.511597 -0.28422,-0.89917 -0.3514,-0.630452 -0.3514,-0.935343 0,-0.449585 0.268717,-0.692465 0.211874,-0.191202 0.692465,-0.30489 l 0.258382,1.147216 0.956014,1.018026 q 0.320394,0.449585 0.816487,1.012858 0.118856,0.07751 0.909505,0.07235 0.279053,0.594279 0.279053,1.219564 z m -0.26355,0.05684 q 0,-0.506429 -0.175699,-0.997355 -0.645956,0 -0.81132,-0.07235 -0.160197,-0.07751 -0.465088,-0.485759 -0.392741,-0.532267 -0.434082,-0.573608 L 27.244554,90.125204 27.037849,89.16919 q -0.516765,0.1757 -0.516765,0.661459 0,0.242879 0.24288,0.661458 0.382405,0.656291 0.408243,1.426269 -1.834513,0 -1.834513,0.656291 0,0.310059 0.211873,0.511597 0.217042,0.19637 0.5271,0.201538 l 0.315226,0.0052 0.935344,-0.423746 q -0.211874,-0.320394 -0.568441,-0.320394 -0.186035,0 -0.578776,0.165364 l -0.242879,0.01034 -0.242879,-0.258382 0.418579,-0.0052 q 0.346232,-0.149862 0.604614,-0.149862 0.661458,0 0.966349,0.671794 l -0.1757,0.08268 q 0.325562,0.160197 0.501262,0.558106 l -0.201538,0.08785 q 0.237711,0.149861 0.439249,0.511596 l -0.320394,0.149862 q 0.26355,0.191203 0.423747,0.542602 l -0.63562,0.284221 q 0.149862,0.03101 0.26355,0.03101 0.03617,0 0.201538,-0.0052 0.687296,-0.397909 1.116211,-0.966349 h 0.713134 q 0.160197,-0.470256 0.160197,-0.89917 z m -2.516642,0.149861 q -0.180867,-0.242879 -0.434082,-0.310058 l -0.769979,0.346232 h -0.310058 q -0.3514,0 -0.552938,-0.108521 -0.06718,0.09302 -0.06718,0.1757 0,0.320394 0.599446,0.320394 h 0.578776 z m 0.217041,0.604615 q -0.160197,-0.191203 -0.335897,-0.279053 l -0.790649,0.3514 -0.837158,-0.0052 q -0.0052,0.03101 -0.0155,0.06718 0,0.304891 0.573608,0.304891 h 0.418579 z m 0.108521,0.697632 q -0.180868,-0.23254 -0.304891,-0.325558 l -0.738973,0.330729 h -0.475423 v 0.03101 q 0,0.346232 0.501261,0.346232 h 0.170532 z"
         style="fill:#333333;fill-opacity:1;stroke-width:0.34947473px"
         id="path819"
         inkscape:connector-curvature="0" />
    </g>
    <g
       aria-label="ðŸ‘"
       style="font-style:normal;font-weight:normal;font-size:10.58333302px;line-height:125%;font-family:sans-serif;letter-spacing:0px;word-spacing:0px;fill:#333333;fill-opacity:1;stroke:none;stroke-width:0.34947473px;stroke-linecap:butt;stroke-linejoin:miter;stroke-opacity:1"
       id="text817-3"
       transform="matrix(0.75708858,0,0,-0.75708858,-0.70992875,160.71449)">
      <path
         d="m 30.43299,93.303312 q 0,0.609782 -0.253214,1.224731 h -0.769979 q -0.532267,0.609782 -1.152385,0.894002 -0.186035,0.0155 -0.289388,0.0155 -0.263549,0 -0.599446,-0.09302 l -0.186035,0.09302 h -0.222209 q -0.759643,0 -0.759643,-0.511596 0,-0.06201 0.01034,-0.124024 -0.558106,-0.04651 -0.558106,-0.54777 0,-0.06201 0.01034,-0.129191 -0.418579,-0.113688 -0.418579,-0.511597 0,-0.160197 0.113688,-0.341064 -0.279053,-0.299723 -0.279053,-0.666626 0,-0.940511 1.808675,-0.940511 -0.06718,-0.511597 -0.28422,-0.89917 -0.3514,-0.630452 -0.3514,-0.935343 0,-0.449585 0.268717,-0.692465 0.211874,-0.191202 0.692465,-0.30489 l 0.258382,1.147216 0.956014,1.018026 q 0.320394,0.449585 0.816487,1.012858 0.118856,0.07751 0.909505,0.07235 0.279053,0.594279 0.279053,1.219564 z m -0.26355,0.05684 q 0,-0.506429 -0.175699,-0.997355 -0.645956,0 -0.81132,-0.07235 -0.160197,-0.07751 -0.465088,-0.485759 -0.392741,-0.532267 -0.434082,-0.573608 L 27.244554,90.125204 27.037849,89.16919 q -0.516765,0.1757 -0.516765,0.661459 0,0.242879 0.24288,0.661458 0.382405,0.656291 0.408243,1.426269 -1.834513,0 -1.834513,0.656291 0,0.310059 0.211873,0.511597 0.217042,0.19637 0.5271,0.201538 l 0.315226,0.0052 0.935344,-0.423746 q -0.211874,-0.320394 -0.568441,-0.320394 -0.186035,0 -0.578776,0.165364 l -0.242879,0.01034 -0.242879,-0.258382 0.418579,-0.0052 q 0.346232,-0.149862 0.604614,-0.149862 0.661458,0 0.966349,0.671794 l -0.1757,0.08268 q 0.325562,0.160197 0.501262,0.558106 l -0.201538,0.08785 q 0.237711,0.149861 0.439249,0.511596 l -0.320394,0.149862 q 0.26355,0.191203 0.423747,0.542602 l -0.63562,0.284221 q 0.149862,0.03101 0.26355,0.03101 0.03617,0 0.201538,-0.0052 0.687296,-0.397909 1.116211,-0.966349 h 0.713134 q 0.160197,-0.470256 0.160197,-0.89917 z m -2.516642,0.149861 q -0.180867,-0.242879 -0.434082,-0.310058 l -0.769979,0.346232 h -0.310058 q -0.3514,0 -0.552938,-0.108521 -0.06718,0.09302 -0.06718,0.1757 0,0.320394 0.599446,0.320394 h 0.578776 z m 0.217041,0.604615 q -0.160197,-0.191203 -0.335897,-0.279053 l -0.790649,0.3514 -0.837158,-0.0052 q -0.0052,0.03101 -0.0155,0.06718 0,0.304891 0.573608,0.304891 h 0.418579 z m 0.108521,0.697632 q -0.180868,-0.23254 -0.304891,-0.325558 l -0.738973,0.330729 h -0.475423 v 0.03101 q 0,0.346232 0.501261,0.346232 h 0.170532 z"
         style="fill:#333333;fill-opacity:1;stroke-width:0.34947473px"
         id="path819-6"
         inkscape:connector-curvature="0" />
    </g>
  </g>
</svg>
