<?xml version="1.0" encoding="UTF-8" standalone="no"?>
<!-- Created with Inkscape (http://www.inkscape.org/) -->

<svg
   xmlns:dc="http://purl.org/dc/elements/1.1/"
   xmlns:cc="http://creativecommons.org/ns#"
   xmlns:rdf="http://www.w3.org/1999/02/22-rdf-syntax-ns#"
   xmlns:svg="http://www.w3.org/2000/svg"
   xmlns="http://www.w3.org/2000/svg"
   xmlns:sodipodi="http://sodipodi.sourceforge.net/DTD/sodipodi-0.dtd"
   xmlns:inkscape="http://www.inkscape.org/namespaces/inkscape"
   width="10mm"
   height="10mm"
   viewBox="0 0 10 10"
   version="1.1"
   id="svg8"
   inkscape:version="0.92.2 (5c3e80d, 2017-08-06)"
   sodipodi:docname="K.svg">
  <defs
     id="defs2" />
  <sodipodi:namedview
     id="base"
     pagecolor="#ffffff"
     bordercolor="#666666"
     borderopacity="1.0"
     inkscape:pageopacity="0.0"
     inkscape:pageshadow="2"
     inkscape:zoom="3.959798"
     inkscape:cx="47.038013"
     inkscape:cy="-8.0126405"
     inkscape:document-units="mm"
     inkscape:current-layer="layer1"
     showgrid="false"
     inkscape:snap-object-midpoints="true"
     inkscape:object-nodes="true"
     inkscape:window-width="1283"
     inkscape:window-height="713"
     inkscape:window-x="83"
     inkscape:window-y="27"
     inkscape:window-maximized="1"
     inkscape:object-paths="true"
     inkscape:snap-others="true" />
  <metadata
     id="metadata5">
    <rdf:RDF>
      <cc:Work
         rdf:about="">
        <dc:format>image/svg+xml</dc:format>
        <dc:type
           rdf:resource="http://purl.org/dc/dcmitype/StillImage" />
        <dc:title />
      </cc:Work>
    </rdf:RDF>
  </metadata>
  <g
     inkscape:label="Livello 1"
     inkscape:groupmode="layer"
     id="layer1"
     transform="translate(14.346188,-128.94896)">
    <g
       id="g1486"
       style="fill:none;fill-opacity:1;fill-rule:evenodd;stroke:#000000;stroke-width:1.39006066;stroke-linecap:round;stroke-linejoin:round;stroke-miterlimit:4;stroke-dasharray:none;stroke-opacity:1"
       transform="matrix(0.28550748,0,0,0.28551074,-15.770106,127.43716)">
      <path
         id="path1472"
         style="fill:none;stroke:#000000;stroke-width:1.39006066;stroke-linejoin:miter"
         d="M 22.5,11.63 V 6"
         inkscape:connector-curvature="0" />
      <path
         id="path1474"
         style="fill:none;stroke:#000000;stroke-width:1.39006066;stroke-linejoin:miter"
         d="m 20,8 h 5"
         inkscape:connector-curvature="0" />
      <path
         id="path1476"
         style="fill:#ffffff;stroke:#000000;stroke-width:1.39006066;stroke-linecap:butt;stroke-linejoin:miter"
         d="m 22.5,25 c 0,0 4.5,-7.5 3,-10.5 0,0 -1,-2.5 -3,-2.5 -2,0 -3,2.5 -3,2.5 -1.5,3 3,10.5 3,10.5"
         inkscape:connector-curvature="0" />
      <path
         id="path1478"
         style="fill:#ffffff;stroke:#000000;stroke-width:1.39006066"
         d="m 11.5,37 c 5.5,3.5 15.5,3.5 21,0 v -7 c 0,0 9,-4.5 6,-10.5 -4,-6.5 -13.5,-3.5 -16,4 V 27 23.5 C 19,16 9.5,13 6.5,19.5 c -3,6 5,10 5,10 z"
         inkscape:connector-curvature="0" />
      <path
         id="path1480"
         style="fill:none;stroke:#000000;stroke-width:1.39006066"
         d="M 11.5,30 C 17,27 27,27 32.5,30"
         inkscape:connector-curvature="0" />
      <path
         id="path1482"
         style="fill:none;stroke:#000000;stroke-width:1.39006066"
         d="m 11.5,33.5 c 5.5,-3 15.5,-3 21,0"
         inkscape:connector-curvature="0" />
      <path
         id="path1484"
         style="fill:none;stroke:#000000;stroke-width:1.39006066"
         d="M 11.5,37 C 17,34 27,34 32.5,37"
         inkscape:connector-curvature="0" />
    </g>
  </g>
</svg>
