<?xml version="1.0" encoding="UTF-8" standalone="no"?>
<!-- Created with Inkscape (http://www.inkscape.org/) -->

<svg
   xmlns:dc="http://purl.org/dc/elements/1.1/"
   xmlns:cc="http://creativecommons.org/ns#"
   xmlns:rdf="http://www.w3.org/1999/02/22-rdf-syntax-ns#"
   xmlns:svg="http://www.w3.org/2000/svg"
   xmlns="http://www.w3.org/2000/svg"
   xmlns:sodipodi="http://sodipodi.sourceforge.net/DTD/sodipodi-0.dtd"
   xmlns:inkscape="http://www.inkscape.org/namespaces/inkscape"
   width="10mm"
   height="10mm"
   viewBox="0 0 10 10"
   version="1.1"
   id="svg8"
   inkscape:version="0.92.2 (5c3e80d, 2017-08-06)"
   sodipodi:docname="trash.svg">
  <defs
     id="defs2" />
  <sodipodi:namedview
     id="base"
     pagecolor="#ffffff"
     bordercolor="#666666"
     borderopacity="1.0"
     inkscape:pageopacity="0.0"
     inkscape:pageshadow="2"
     inkscape:zoom="3.959798"
     inkscape:cx="-32.676831"
     inkscape:cy="0.83691207"
     inkscape:document-units="mm"
     inkscape:current-layer="layer1"
     showgrid="false"
     inkscape:object-nodes="false"
     inkscape:snap-object-midpoints="true"
     inkscape:window-width="1283"
     inkscape:window-height="713"
     inkscape:window-x="83"
     inkscape:window-y="27"
     inkscape:window-maximized="1" />
  <metadata
     id="metadata5">
    <rdf:RDF>
      <cc:Work
         rdf:about="">
        <dc:format>image/svg+xml</dc:format>
        <dc:type
           rdf:resource="http://purl.org/dc/dcmitype/StillImage" />
        <dc:title></dc:title>
      </cc:Work>
    </rdf:RDF>
  </metadata>
  <g
     inkscape:label="Livello 1"
     inkscape:groupmode="layer"
     id="layer1"
     transform="translate(74.2577,-72.500716)">
    <g
       aria-label="🗑"
       style="font-style:normal;font-weight:normal;font-size:10.58333302px;line-height:125%;font-family:sans-serif;letter-spacing:0px;word-spacing:0px;fill:#333333;fill-opacity:1;stroke:none;stroke-width:0.21247406px;stroke-linecap:butt;stroke-linejoin:miter;stroke-opacity:1"
       id="text817"
       transform="matrix(1.24525,0,0,1.24525,17.764286,-20.233301)">
      <path
         d="m -67.332911,75.953316 q 0,0.227376 -0.180868,0.377238 -0.03617,0.03101 -0.07235,0.06201 V 81.338 q 0,0.542603 -0.248047,0.707967 -0.671793,0.454753 -2.051554,0.454753 -1.374593,0 -2.046387,-0.454753 -0.248047,-0.165364 -0.248047,-0.707967 v -4.945434 q -0.03617,-0.03101 -0.07235,-0.06201 -0.180867,-0.149862 -0.180867,-0.377238 v -0.630453 q 0,-0.320393 0.26355,-0.465087 0.713134,-0.387574 2.284098,-0.387574 1.576131,0 2.289266,0.387574 0.26355,0.144694 0.26355,0.465087 z m -0.253215,-0.671794 q 0,-0.273885 -1.033528,-0.439249 -0.738973,-0.118856 -1.266073,-0.118856 -0.5271,0 -1.266073,0.118856 -1.028361,0.165364 -1.028361,0.444417 0,0.28422 1.038697,0.428914 0.671793,0.09302 1.260905,0.09302 0.599446,0 1.260905,-0.09302 1.033528,-0.144694 1.033528,-0.434082 z m 0,0.490926 v -0.155029 q -0.868164,0.444417 -2.299601,0.444417 -1.415934,0 -2.294434,-0.444417 v 0.155029 q 0,0.862997 2.294434,0.862997 2.299601,0 2.299601,-0.862997 z m -0.258382,5.550049 v -4.795573 q -0.1757,0.07235 -0.382406,0.139527 v 4.826578 l -0.253214,0.06718 V 76.73363 q -0.310059,0.05684 -0.764811,0.108521 v 4.831746 h -0.258382 v -4.831746 q -0.310059,0.0155 -0.382406,0.0155 -0.06718,0 -0.382406,-0.0155 v 4.831746 h -0.253214 v -4.831746 q -0.454753,-0.05168 -0.764811,-0.108521 v 4.826579 l -0.253215,-0.06718 v -4.826578 q -0.206706,-0.06718 -0.382405,-0.139527 v 4.795573 q 0,0.45992 0.294555,0.609782 0.625285,0.315226 1.741496,0.315226 1.121379,0 1.746663,-0.315226 0.294556,-0.149862 0.294556,-0.609782 z"
         style="stroke-width:0.21247406px;fill:#333333;fill-opacity:1"
         id="path819"
         inkscape:connector-curvature="0" />
    </g>
  </g>
</svg>
